<svg width="16" height="19" viewBox="0 0 16 19" fill="none" xmlns="http://www.w3.org/2000/svg">
<g id="thong bao 2">
<path id="Vector" d="M13.3324 10.6469V7.61853C13.3311 6.26922 12.8522 4.96392 11.9807 3.9338C11.1092 2.90369 9.90129 2.21523 8.57085 1.99034V0.952316C8.57085 0.699746 8.47051 0.457521 8.29192 0.278927C8.11333 0.100333 7.8711 0 7.61853 0C7.36596 0 7.12374 0.100333 6.94514 0.278927C6.76655 0.457521 6.66622 0.699746 6.66622 0.952316V1.99034C5.33577 2.21523 4.12784 2.90369 3.25634 3.9338C2.38483 4.96392 1.906 6.26922 1.90463 7.61853V10.6469C1.34891 10.8434 0.867559 11.2069 0.526572 11.6877C0.185586 12.1685 0.00165657 12.743 0 13.3324V15.2371C0 15.4896 0.100333 15.7319 0.278927 15.9105C0.457521 16.089 0.699746 16.1894 0.952316 16.1894H3.94259C4.16189 16.9963 4.64064 17.7087 5.30497 18.2166C5.9693 18.7245 6.7823 18.9997 7.61853 18.9997C8.45476 18.9997 9.26776 18.7245 9.93209 18.2166C10.5964 17.7087 11.0752 16.9963 11.2945 16.1894H14.2847C14.5373 16.1894 14.7795 16.089 14.9581 15.9105C15.1367 15.7319 15.2371 15.4896 15.2371 15.2371V13.3324C15.2354 12.743 15.0515 12.1685 14.7105 11.6877C14.3695 11.2069 13.8882 10.8434 13.3324 10.6469ZM3.80927 7.61853C3.80927 6.60825 4.2106 5.63935 4.92497 4.92497C5.63935 4.2106 6.60825 3.80927 7.61853 3.80927C8.62881 3.80927 9.59771 4.2106 10.3121 4.92497C11.0265 5.63935 11.4278 6.60825 11.4278 7.61853V10.4755H3.80927V7.61853ZM7.61853 17.1417C7.28615 17.1397 6.96007 17.0507 6.67272 16.8837C6.38537 16.7166 6.14674 16.4772 5.98055 16.1894H9.25652C9.09033 16.4772 8.8517 16.7166 8.56434 16.8837C8.27699 17.0507 7.95092 17.1397 7.61853 17.1417ZM13.3324 14.2847H1.90463V13.3324C1.90463 13.0799 2.00497 12.8376 2.18356 12.659C2.36215 12.4804 2.60438 12.3801 2.85695 12.3801H12.3801C12.6327 12.3801 12.8749 12.4804 13.0535 12.659C13.2321 12.8376 13.3324 13.0799 13.3324 13.3324V14.2847Z" fill="#20304D"/>
</g>
</svg>
