<svg width="58" height="32" viewBox="0 0 58 32" fill="none" xmlns="http://www.w3.org/2000/svg">
<g id="Component 63">
<rect x="0.75662" y="0.75662" width="56.391" height="30.4865" rx="5.29634" stroke="#3F7824" stroke-width="1.51324"/>
<path id="Vector" d="M22.1692 9.79672C22.1692 9.47556 22.4296 9.21521 22.7508 9.21521H23.1836C23.9206 9.21521 24.3619 9.71065 24.6142 10.1712C24.7824 10.4782 24.9041 10.8343 24.9993 11.1566C25.0251 11.1546 25.0512 11.1536 25.0776 11.1536H34.768C35.4117 11.1536 35.8766 11.7695 35.7001 12.3886L34.2828 17.3579C34.0217 18.2738 33.1847 18.9054 32.2323 18.9054H27.6201C26.6598 18.9054 25.8179 18.2635 25.5638 17.3375L24.9741 15.1889L23.9982 11.8946L23.9966 11.8889C23.8759 11.4486 23.7626 11.0373 23.5942 10.73C23.4307 10.4316 23.3003 10.3782 23.1836 10.3782H22.7508C22.4296 10.3782 22.1692 10.1179 22.1692 9.79672ZM26.1027 14.9065L26.6854 17.0297C26.8009 17.4506 27.1836 17.7424 27.6201 17.7424H32.2323C32.6652 17.7424 33.0456 17.4552 33.1644 17.039L34.5111 12.3166H25.3371L26.092 14.865C26.0961 14.8788 26.0996 14.8926 26.1027 14.9065ZM28.7601 21.2331C28.7601 22.0896 28.0658 22.7838 27.2093 22.7838C26.3528 22.7838 25.6585 22.0896 25.6585 21.2331C25.6585 20.3767 26.3528 19.6824 27.2093 19.6824C28.0658 19.6824 28.7601 20.3767 28.7601 21.2331ZM27.597 21.2331C27.597 21.0191 27.4234 20.8455 27.2093 20.8455C26.9952 20.8455 26.8216 21.0191 26.8216 21.2331C26.8216 21.4472 26.9952 21.6208 27.2093 21.6208C27.4234 21.6208 27.597 21.4472 27.597 21.2331ZM34.1879 21.2331C34.1879 22.0896 33.4936 22.7838 32.6371 22.7838C31.7806 22.7838 31.0863 22.0896 31.0863 21.2331C31.0863 20.3767 31.7806 19.6824 32.6371 19.6824C33.4936 19.6824 34.1879 20.3767 34.1879 21.2331ZM33.0248 21.2331C33.0248 21.0191 32.8512 20.8455 32.6371 20.8455C32.423 20.8455 32.2494 21.0191 32.2494 21.2331C32.2494 21.4472 32.423 21.6208 32.6371 21.6208C32.8512 21.6208 33.0248 21.4472 33.0248 21.2331Z" fill="#3F7824"/>
</g>
</svg>
