<svg width="21" height="18" viewBox="0 0 21 18" fill="none" xmlns="http://www.w3.org/2000/svg">
<g id="&#240;&#159;&#166;&#134; icon &#34;envelope&#34;">
<path id="Vector" d="M3.15059 0.503465H17.8504C18.5441 0.503465 19.2153 0.79294 19.7138 1.31668C20.2129 1.84124 20.4975 2.55793 20.4975 3.30989V14.3419C20.4975 15.0938 20.2129 15.8105 19.7138 16.3351C19.2153 16.8588 18.5441 17.1483 17.8504 17.1483H3.15059C2.45691 17.1483 1.78566 16.8588 1.28718 16.3351C0.788048 15.8105 0.503465 15.0938 0.503465 14.3419V3.30989C0.503465 2.55789 0.787995 1.84125 1.28718 1.31668C1.72325 0.858509 2.29125 0.579848 2.89099 0.517232L3.15059 0.503465ZM18.5358 3.41511L12.3614 9.90214C11.8631 10.4248 11.1929 10.7134 10.5 10.7134C9.80704 10.7133 9.13683 10.425 8.63856 9.90214L2.46521 3.41511L1.59693 2.50258V14.3419C1.59693 14.7602 1.75496 15.1667 2.04336 15.4698C2.33253 15.7734 2.7305 15.9486 3.15059 15.9486H17.8504C18.2705 15.9486 18.6684 15.7734 18.9576 15.4698C19.246 15.1667 19.4041 14.7602 19.4041 14.3419V2.50258L18.5358 3.41511ZM3.21549 2.55371L9.38982 9.03975C9.53279 9.19098 9.70365 9.31323 9.89427 9.3967C10.0853 9.48031 10.2915 9.5235 10.5 9.52355C10.7085 9.52355 10.9147 9.48022 11.1057 9.3967C11.2968 9.31308 11.469 9.19044 11.6121 9.03877L11.6112 9.03779L17.7845 2.55371L18.5948 1.70313H2.40621L3.21549 2.55371Z" fill="#3F7824" stroke="#3F7824"/>
</g>
</svg>
