<svg width="20" height="19" viewBox="0 0 20 19" fill="none" xmlns="http://www.w3.org/2000/svg">
<g id="&#240;&#159;&#166;&#134; icon &#34;google&#34;">
<path id="Vector" d="M9.98055 3.7783C11.399 3.75559 12.7696 4.26595 13.7953 5.1987L16.6575 2.47446C14.8512 0.859773 12.4584 -0.0267763 9.98055 0.000616388C6.20749 -0.000760845 2.75649 2.02417 1.06282 5.23325L4.39677 7.69413C5.18293 5.38402 7.42952 3.80852 9.98055 3.7783Z" fill="#EA4335"/>
<path id="Vector_2" d="M1.06142 5.23341C-0.353807 7.91758 -0.353807 11.0803 1.06142 13.7645L4.39532 11.3036C3.97807 10.1333 3.97807 8.86463 4.39532 7.69431L1.06142 5.23341Z" fill="#FFC700"/>
<path id="Vector_3" d="M13.3598 14.3123C10.5617 16.0218 6.83736 15.2485 5.0413 12.5852C4.77137 12.185 4.55484 11.7543 4.39672 11.303L1.06282 13.7639C2.75646 16.973 6.20748 18.998 9.98055 18.9966C12.4098 19.0593 14.7723 18.2361 16.5849 16.6954L13.3598 14.3123Z" fill="#34A853"/>
<path id="Vector_4" d="M19.377 7.77166H9.97852V11.4457H15.3491C15.1245 12.62 14.4051 13.6558 13.3578 14.3124L16.5828 16.6957C18.569 14.8749 19.6504 12.3377 19.5585 9.71448C19.559 9.06299 19.4983 8.41283 19.377 7.77166Z" fill="#4285F4"/>
</g>
</svg>
