<svg width="20" height="19" viewBox="0 0 20 19" fill="none" xmlns="http://www.w3.org/2000/svg">
<g id="Group 168">
<path id="Vector" d="M4.01459 8.22276C5.61156 11.21 8.18445 13.6483 11.3229 15.1789L13.7627 12.8566C14.0622 12.5716 14.5058 12.4766 14.8939 12.6033C16.136 12.9939 17.4779 13.205 18.8531 13.205C19.463 13.205 19.9621 13.68 19.9621 14.2605V17.9444C19.9621 18.525 19.463 19 18.8531 19C8.43952 19 0 10.9672 0 1.05555C0 0.474999 0.499052 0 1.109 0H4.99052C5.60047 0 6.09952 0.474999 6.09952 1.05555C6.09952 2.375 6.32132 3.64166 6.73165 4.82388C6.85364 5.19332 6.76492 5.60499 6.4544 5.90055L4.01459 8.22276Z" fill="#3F7824"/>
</g>
</svg>
