<svg width="26" height="19" viewBox="0 0 26 19" fill="none" xmlns="http://www.w3.org/2000/svg">
<g id="&#240;&#159;&#166;&#134; icon &#34;youtube&#34;">
<path id="Vector" d="M25.9942 6.68569C26.0526 4.93035 25.6829 3.18815 24.9194 1.62085C24.4014 0.977749 23.6825 0.543757 22.888 0.394497C19.6016 0.0848741 16.3017 -0.0420303 13.0023 0.0143278C9.71494 -0.0445882 6.42688 0.078221 3.15209 0.382234C2.50464 0.504522 1.90548 0.819848 1.42771 1.28974C0.364737 2.30761 0.246629 4.04903 0.12852 5.52065C-0.0428401 8.16659 -0.0428401 10.8215 0.12852 13.4674C0.162689 14.2957 0.281463 15.1179 0.482845 15.9201C0.625254 16.5395 0.913376 17.1126 1.32141 17.588C1.80243 18.0827 2.41555 18.416 3.08122 18.5445C5.62754 18.8709 8.1932 19.0061 10.7583 18.9492C14.892 19.0105 18.518 18.9492 22.8053 18.6058C23.4873 18.4852 24.1177 18.1515 24.6123 17.6493C24.943 17.3058 25.19 16.8854 25.3328 16.4229C25.7552 15.0772 25.9626 13.6687 25.947 12.2533C25.9942 11.5666 25.9942 7.4215 25.9942 6.68569ZM10.3331 12.9891V5.39802L17.3251 9.21198C15.3645 10.3402 12.7779 11.6156 10.3331 12.9891Z" fill="#E70F0F"/>
</g>
</svg>
