<svg width="16" height="19" viewBox="0 0 16 19" fill="none" xmlns="http://www.w3.org/2000/svg">
<g id="thong bao 2">
<path id="Vector" d="M13.3328 10.6472V7.61873C13.3314 6.26938 12.8526 4.96405 11.981 3.93391C11.1095 2.90376 9.90155 2.21528 8.57107 1.99039V0.952341C8.57107 0.699765 8.47073 0.457533 8.29213 0.278934C8.11354 0.100336 7.8713 0 7.61873 0C7.36615 0 7.12392 0.100336 6.94532 0.278934C6.76672 0.457533 6.66639 0.699765 6.66639 0.952341V1.99039C5.33591 2.21528 4.12795 2.90376 3.25642 3.93391C2.3849 4.96405 1.90605 6.26938 1.90468 7.61873V10.6472C1.34894 10.8437 0.867581 11.2072 0.526586 11.688C0.185591 12.1688 0.00165661 12.7433 0 13.3328V15.2375C0 15.49 0.100336 15.7323 0.278934 15.9109C0.457533 16.0895 0.699764 16.1898 0.952341 16.1898H3.94269C4.162 16.9968 4.64076 17.7092 5.30511 18.2171C5.96946 18.725 6.78247 19.0002 7.61873 19.0002C8.45498 19.0002 9.268 18.725 9.93235 18.2171C10.5967 17.7092 11.0755 16.9968 11.2948 16.1898H14.2851C14.5377 16.1898 14.7799 16.0895 14.9585 15.9109C15.1371 15.7323 15.2375 15.49 15.2375 15.2375V13.3328C15.2358 12.7433 15.0519 12.1688 14.7109 11.688C14.3699 11.2072 13.8885 10.8437 13.3328 10.6472ZM3.80936 7.61873C3.80936 6.60842 4.21071 5.6395 4.9251 4.9251C5.6395 4.21071 6.60842 3.80936 7.61873 3.80936C8.62903 3.80936 9.59796 4.21071 10.3124 4.9251C11.0268 5.6395 11.4281 6.60842 11.4281 7.61873V10.4758H3.80936V7.61873ZM7.61873 17.1421C7.28634 17.1401 6.96025 17.0512 6.67289 16.8841C6.38553 16.717 6.14689 16.4777 5.9807 16.1898H9.25676C9.09056 16.4777 8.85192 16.717 8.56456 16.8841C8.2772 17.0512 7.95112 17.1401 7.61873 17.1421ZM13.3328 14.2851H1.90468V13.3328C1.90468 13.0802 2.00502 12.838 2.18362 12.6594C2.36222 12.4808 2.60445 12.3804 2.85702 12.3804H12.3804C12.633 12.3804 12.8752 12.4808 13.0538 12.6594C13.2324 12.838 13.3328 13.0802 13.3328 13.3328V14.2851Z" fill="#20304D"/>
</g>
</svg>
