<svg width="57" height="57" viewBox="0 0 57 57" fill="none" xmlns="http://www.w3.org/2000/svg">
<path id="Vector" d="M48.3402 15.6736C48.3402 17.1555 48.1318 18.5893 47.7425 19.9482H52.4198C54.9485 19.9482 56.9981 21.9722 56.9981 24.469V38.4715C56.9981 48.7017 48.5996 56.9948 38.2392 56.9948C33.839 56.9948 29.7928 55.4989 26.5934 52.994L23.1756 56.3687C22.3304 57.2034 20.96 57.2034 20.1146 56.3687C19.2694 55.534 19.2694 54.1809 20.1146 53.3462L23.5323 49.9713C22.3932 48.5527 21.4602 46.9657 20.7778 45.2541C19.6592 45.4781 18.5014 45.5958 17.3159 45.5958C7.75258 45.5958 0 37.9406 0 28.4974V15.7124C0 13.3302 1.95577 11.399 4.36833 11.399H17.1918C19.0761 4.82033 25.2015 0 32.4673 0H44.1818C46.4784 0 48.3402 1.83842 48.3402 4.10622V15.6736ZM21.5647 11.9175C26.4552 13.1356 30.5184 16.4084 32.7573 20.7516C34.4912 20.2292 36.3322 19.9482 38.2392 19.9482H43.172C43.7131 18.6281 44.0112 17.1852 44.0112 15.6736V4.27461H32.4673C27.4243 4.27461 23.1369 7.4674 21.5647 11.9175ZM29.6812 49.9448C32.0757 51.6891 35.0355 52.7202 38.2392 52.7202C46.2086 52.7202 52.6691 46.3407 52.6691 38.4715V24.469C52.6691 24.3331 52.5575 24.2228 52.4198 24.2228H38.2392C30.2699 24.2228 23.8093 30.6022 23.8093 38.4715C23.8093 41.6352 24.8535 44.5579 26.6203 46.9224L38.8736 34.8229C39.7189 33.9883 41.0894 33.9883 41.9344 34.8229C42.7798 35.6576 42.7798 37.0107 41.9344 37.8454L29.6812 49.9448ZM19.4804 38.4715C19.4804 36.7833 19.7091 35.1481 20.1375 33.5941L12.1776 25.734C11.3323 24.8993 11.3323 23.5462 12.1776 22.7115C13.0228 21.8768 14.3933 21.8768 15.2386 22.7115L21.9278 29.3167C23.5626 26.4829 25.9328 24.1165 28.7822 22.4708C26.5975 18.4263 22.2822 15.6736 17.3159 15.6736H4.36833C4.3589 15.6736 4.35367 15.6757 4.35367 15.6757C4.35367 15.6757 4.34562 15.6799 4.34049 15.6849C4.33538 15.69 4.33116 15.698 4.33116 15.698C4.33116 15.698 4.32897 15.7031 4.32897 15.7124V28.4974C4.32897 35.5798 10.1434 41.3212 17.3159 41.3212C18.1195 41.3212 18.9061 41.2491 19.6694 41.1112C19.5448 40.2488 19.4804 39.3677 19.4804 38.4715Z" fill="#386A20"/>
</svg>
