<svg width="16" height="19" viewBox="0 0 16 19" fill="none" xmlns="http://www.w3.org/2000/svg">
<g id="thong bao 2">
<path id="Vector" d="M13.3326 10.647V7.61863C13.3312 6.2693 12.8524 4.96398 11.9809 3.93386C11.1094 2.90373 9.90142 2.21526 8.57096 1.99037V0.952329C8.57096 0.699755 8.47062 0.457527 8.29203 0.278931C8.11343 0.100334 7.8712 0 7.61863 0C7.36606 0 7.12383 0.100334 6.94523 0.278931C6.76664 0.457527 6.6663 0.699755 6.6663 0.952329V1.99037C5.33584 2.21526 4.12789 2.90373 3.25638 3.93386C2.38487 4.96398 1.90602 6.2693 1.90466 7.61863V10.647C1.34893 10.8435 0.86757 11.2071 0.526579 11.6879C0.185588 12.1687 0.00165659 12.7432 0 13.3326V15.2373C0 15.4898 0.100335 15.7321 0.278931 15.9107C0.457527 16.0893 0.699755 16.1896 0.952329 16.1896H3.94264C4.16195 16.9966 4.6407 17.709 5.30504 18.2168C5.96938 18.7247 6.78239 18.9999 7.61863 18.9999C8.45487 18.9999 9.26788 18.7247 9.93222 18.2168C10.5966 17.709 11.0753 16.9966 11.2946 16.1896H14.2849C14.5375 16.1896 14.7797 16.0893 14.9583 15.9107C15.1369 15.7321 15.2373 15.4898 15.2373 15.2373V13.3326C15.2356 12.7432 15.0517 12.1687 14.7107 11.6879C14.3697 11.2071 13.8883 10.8435 13.3326 10.647ZM3.80931 7.61863C3.80931 6.60834 4.21065 5.63942 4.92504 4.92504C5.63942 4.21065 6.60834 3.80932 7.61863 3.80932C8.62892 3.80932 9.59784 4.21065 10.3122 4.92504C11.0266 5.63942 11.4279 6.60834 11.4279 7.61863V10.4756H3.80931V7.61863ZM7.61863 17.1419C7.28624 17.1399 6.96016 17.051 6.67281 16.8839C6.38545 16.7168 6.14682 16.4775 5.98062 16.1896H9.25664C9.09044 16.4775 8.85181 16.7168 8.56445 16.8839C8.27709 17.051 7.95102 17.1399 7.61863 17.1419ZM13.3326 14.2849H1.90466V13.3326C1.90466 13.08 2.00499 12.8378 2.18359 12.6592C2.36218 12.4806 2.60441 12.3803 2.85699 12.3803H12.3803C12.6328 12.3803 12.8751 12.4806 13.0537 12.6592C13.2323 12.8378 13.3326 13.08 13.3326 13.3326V14.2849Z" fill="#20304D"/>
</g>
</svg>
