<svg width="33" height="33" viewBox="0 0 33 33" fill="none" xmlns="http://www.w3.org/2000/svg">
<g id="pricetags">
<path id="Vector" d="M16.2648 32.9984C15.3798 32.9974 14.5306 32.6485 13.9005 32.027L2.1521 20.2603C1.85062 19.9606 1.66273 19.5654 1.62058 19.1423L0.00770324 2.00547C-0.0169867 1.73703 0.0178467 1.46643 0.10972 1.21299C0.201593 0.959547 0.348245 0.72949 0.53922 0.53922C0.729491 0.348244 0.959547 0.201593 1.21299 0.10972C1.46643 0.0178467 1.73703 -0.0169867 2.00547 0.00770324L19.1423 1.62058C19.5654 1.66273 19.9606 1.85062 20.2603 2.1521L32.027 13.9005C32.6504 14.5257 33.0005 15.3727 33.0005 16.2556C33.0005 17.1386 32.6504 17.9855 32.027 18.6108L18.6108 32.027C17.9874 32.6474 17.1443 32.9965 16.2648 32.9984ZM5.26789 18.1343L16.2648 29.1312L29.1862 16.2098L18.1893 5.2129L3.87495 3.87495L5.26789 18.1343Z" fill="#3F7824"/>
<path id="Vector_2" d="M11.9209 14.6701C13.4393 14.6701 14.6701 13.4393 14.6701 11.9209C14.6701 10.4026 13.4393 9.17169 11.9209 9.17169C10.4026 9.17169 9.17169 10.4026 9.17169 11.9209C9.17169 13.4393 10.4026 14.6701 11.9209 14.6701Z" fill="#3F7824"/>
</g>
</svg>
