<svg width="45" height="43" viewBox="0 0 45 43" fill="none" xmlns="http://www.w3.org/2000/svg">
<g id="share">
<path id="Vector" d="M37.8944 28.4222C36.0341 28.4237 34.2486 29.1549 32.9215 30.4587L14.2141 22.1232V21.3181V20.5366L32.9215 12.1775C34.0933 13.326 35.6264 14.0335 37.2607 14.1799C38.8949 14.3263 40.5294 13.9024 41.8866 12.9804C43.2438 12.0583 44.24 10.6949 44.706 9.12172C45.1719 7.54851 45.079 5.86251 44.4429 4.35005C43.8069 2.8376 42.6668 1.59194 41.2165 0.824656C39.7662 0.0573698 38.095 -0.184243 36.4868 0.140855C34.8786 0.465952 33.4324 1.33771 32.394 2.60808C31.3556 3.87845 30.789 5.4691 30.7903 7.10986V7.91499L12.0828 16.2505C11.0844 15.2695 9.81838 14.6054 8.44379 14.3414C7.0692 14.0775 5.64726 14.2255 4.35648 14.7668C3.0657 15.3082 1.9636 16.2188 1.18854 17.3843C0.413484 18.5498 0 19.9184 0 21.3181C0 22.7178 0.413484 24.0863 1.18854 25.2518C1.9636 26.4173 3.0657 27.3279 4.35648 27.8693C5.64726 28.4107 7.0692 28.5587 8.44379 28.2947C9.81838 28.0307 11.0844 27.3666 12.0828 26.3857L30.7903 34.7448V35.5263C30.7903 36.9313 31.2069 38.3048 31.9876 39.4731C32.7682 40.6413 33.8777 41.5519 35.1758 42.0896C36.4739 42.6273 37.9023 42.768 39.2803 42.4939C40.6584 42.2197 41.9242 41.5431 42.9177 40.5496C43.9113 39.5561 44.5879 38.2903 44.862 36.9122C45.1361 35.5341 44.9954 34.1057 44.4577 32.8076C43.92 31.5095 43.0095 30.4 41.8412 29.6194C40.673 28.8388 39.2995 28.4222 37.8944 28.4222ZM37.8944 4.74183C38.3628 4.74183 38.8206 4.88071 39.21 5.14092C39.5994 5.40112 39.9029 5.77095 40.0822 6.20366C40.2614 6.63636 40.3083 7.11249 40.2169 7.57184C40.1256 8.0312 39.9 8.45314 39.5688 8.78431C39.2377 9.11549 38.8157 9.34102 38.3564 9.4324C37.897 9.52377 37.4209 9.47687 36.9882 9.29764C36.5555 9.11841 36.1856 8.81489 35.9254 8.42547C35.6652 8.03605 35.5264 7.57822 35.5264 7.10986C35.5264 6.48182 35.7758 5.8795 36.2199 5.43541C36.664 4.99132 37.2664 4.74183 37.8944 4.74183ZM7.10996 23.6861C6.64161 23.6861 6.18377 23.5472 5.79435 23.287C5.40493 23.0268 5.10141 22.657 4.92218 22.2243C4.74295 21.7916 4.69606 21.3154 4.78743 20.8561C4.8788 20.3967 5.10433 19.9748 5.43551 19.6436C5.76668 19.3124 6.18863 19.0869 6.64798 18.9955C7.10733 18.9042 7.58347 18.9511 8.01617 19.1303C8.44887 19.3095 8.81871 19.613 9.07891 20.0025C9.33911 20.3919 9.47799 20.8497 9.47799 21.3181C9.47799 21.9461 9.22851 22.5484 8.78441 22.9925C8.34032 23.4366 7.738 23.6861 7.10996 23.6861ZM37.8944 37.8943C37.426 37.8943 36.9682 37.7554 36.5788 37.4952C36.1894 37.235 35.8858 36.8652 35.7066 36.4325C35.5274 35.9998 35.4805 35.5236 35.5719 35.0643C35.6632 34.6049 35.8888 34.183 36.2199 33.8518C36.5511 33.5206 36.9731 33.2951 37.4324 33.2037C37.8918 33.1124 38.3679 33.1592 38.8006 33.3385C39.2333 33.5177 39.6031 33.8212 39.8633 34.2107C40.1236 34.6001 40.2624 35.0579 40.2624 35.5263C40.2624 36.1543 40.0129 36.7566 39.5688 37.2007C39.1248 37.6448 38.5224 37.8943 37.8944 37.8943Z" fill="#386A20"/>
</g>
</svg>
