<svg width="43" height="43" viewBox="0 0 43 43" fill="none" xmlns="http://www.w3.org/2000/svg">
<g id="pricetags">
<path id="Vector" d="M21.1929 42.9968C20.0397 42.9954 18.9333 42.5408 18.1122 41.731L2.80417 26.3991C2.41135 26.0085 2.16653 25.4936 2.11161 24.9423L0.0100373 2.61312C-0.0221336 2.26333 0.0232541 1.91076 0.142965 1.58052C0.262675 1.25028 0.453761 0.950522 0.702601 0.702601C0.950522 0.453761 1.25028 0.262675 1.58052 0.142965C1.91076 0.0232541 2.26333 -0.0221336 2.61312 0.0100373L24.9423 2.11161C25.4936 2.16653 26.0085 2.41135 26.3991 2.80417L41.731 18.1122C42.5433 18.927 42.9995 20.0305 42.9995 21.181C42.9995 22.3315 42.5433 23.435 41.731 24.2498L24.2498 41.731C23.4375 42.5394 22.3389 42.9943 21.1929 42.9968ZM6.86403 23.6289L21.1929 37.9578L38.0294 21.1213L23.7005 6.79239L5.04904 5.04904L6.86403 23.6289Z" fill="#386A20"/>
<path id="Vector_2" d="M15.5333 19.116C17.5117 19.116 19.1155 17.5122 19.1155 15.5337C19.1155 13.5553 17.5117 11.9515 15.5333 11.9515C13.5548 11.9515 11.951 13.5553 11.951 15.5337C11.951 17.5122 13.5548 19.116 15.5333 19.116Z" fill="#386A20"/>
</g>
</svg>
