<svg width="20" height="19" viewBox="0 0 20 19" fill="none" xmlns="http://www.w3.org/2000/svg">
<g id="&#240;&#159;&#166;&#134; icon &#34;google&#34;">
<path id="Vector" d="M9.98081 3.7784C11.3993 3.75569 12.7699 4.26606 13.7957 5.19884L16.6579 2.47453C14.8516 0.859795 12.4587 -0.026777 9.98081 0.000616405C6.20766 -0.000760865 2.75656 2.02422 1.06285 5.23339L4.39689 7.69433C5.18306 5.38417 7.42971 3.80862 9.98081 3.7784Z" fill="#FFC700"/>
<path id="Vector_2" d="M1.06145 5.23305C-0.353817 7.91729 -0.353817 11.0801 1.06145 13.7643L4.39543 11.3034C3.97818 10.133 3.97818 8.86437 4.39543 7.69401L1.06145 5.23305Z" fill="#FFC700"/>
<path id="Vector_3" d="M13.3602 14.3126C10.562 16.0222 6.83754 15.2489 5.04144 12.5856C4.77149 12.1853 4.55496 11.7546 4.39684 11.3033L1.06285 13.7643C2.75653 16.9735 6.20765 18.9985 9.98081 18.9971C12.4101 19.0598 14.7727 18.2366 16.5853 16.6959L13.3602 14.3126Z" fill="#FFC700"/>
<path id="Vector_4" d="M19.3775 7.77186H9.97879V11.446H15.3495C15.1249 12.6204 14.4055 13.6562 13.3582 14.3128L16.5832 16.6961C18.5694 14.8753 19.6509 12.338 19.559 9.71473C19.5595 9.06323 19.4988 8.41305 19.3775 7.77186Z" fill="#FFC700"/>
</g>
</svg>
