<svg width="48" height="43" viewBox="0 0 48 43" fill="none" xmlns="http://www.w3.org/2000/svg">
<g id="people">
<path id="Vector" d="M16.7211 19.1118C18.6111 19.1118 20.4586 18.5514 22.0301 17.5013C23.6015 16.4513 24.8263 14.9589 25.5496 13.2128C26.2728 11.4667 26.4621 9.5453 26.0934 7.69164C25.7247 5.83798 24.8145 4.13528 23.4781 2.79886C22.1417 1.46244 20.439 0.552335 18.5853 0.183618C16.7317 -0.185098 14.8103 0.00414039 13.0642 0.727404C11.3181 1.45067 9.82566 2.67547 8.77564 4.24693C7.72563 5.81839 7.16518 7.66592 7.16518 9.5559C7.16518 12.0903 8.17196 14.5209 9.96404 16.3129C11.7561 18.105 14.1867 19.1118 16.7211 19.1118ZM16.7211 4.77795C17.6661 4.77795 18.5898 5.05818 19.3756 5.58318C20.1613 6.10819 20.7737 6.8544 21.1353 7.72746C21.497 8.60052 21.5916 9.5612 21.4072 10.488C21.2229 11.4149 20.7678 12.2662 20.0996 12.9344C19.4314 13.6026 18.58 14.0577 17.6532 14.242C16.7264 14.4264 15.7657 14.3318 14.8926 13.9702C14.0196 13.6085 13.2734 12.9961 12.7484 12.2104C12.2234 11.4247 11.9431 10.5009 11.9431 9.5559C11.9431 8.28871 12.4465 7.07342 13.3426 6.17738C14.2386 5.28134 15.4539 4.77795 16.7211 4.77795Z" fill="#386A20"/>
<path id="Vector_2" d="M35.8356 23.8881C37.253 23.8881 38.6387 23.4678 39.8173 22.6802C40.9959 21.8927 41.9145 20.7734 42.4569 19.4638C42.9994 18.1542 43.1413 16.7132 42.8648 15.323C42.5882 13.9327 41.9057 12.6557 40.9033 11.6534C39.901 10.6511 38.624 9.96849 37.2338 9.69195C35.8435 9.41541 34.4025 9.55734 33.0929 10.0998C31.7833 10.6422 30.664 11.5608 29.8765 12.7394C29.089 13.918 28.6686 15.3037 28.6686 16.7212C28.6686 18.622 29.4237 20.4449 30.7678 21.7889C32.1118 23.133 33.9348 23.8881 35.8356 23.8881ZM35.8356 14.3322C36.3081 14.3322 36.7699 14.4723 37.1628 14.7348C37.5557 14.9973 37.8619 15.3704 38.0427 15.8069C38.2235 16.2435 38.2708 16.7238 38.1786 17.1872C38.0865 17.6506 37.8589 18.0763 37.5248 18.4104C37.1907 18.7445 36.765 18.9721 36.3016 19.0642C35.8382 19.1564 35.3579 19.1091 34.9213 18.9283C34.4848 18.7475 34.1117 18.4413 33.8492 18.0484C33.5867 17.6555 33.4466 17.1937 33.4466 16.7212C33.4466 16.0876 33.6983 15.4799 34.1463 15.0319C34.5943 14.5839 35.202 14.3322 35.8356 14.3322Z" fill="#386A20"/>
<path id="Vector_3" d="M35.8346 26.2772C33.1872 26.2801 30.6158 27.1624 28.5244 28.7856C26.1844 26.4548 23.2066 24.8691 19.9666 24.2284C16.7266 23.5878 13.3695 23.9209 10.3185 25.1857C7.26758 26.4505 4.65949 28.5905 2.82315 31.3356C0.986812 34.0808 0.00446785 37.3083 0 40.611C0 41.2446 0.251695 41.8522 0.699714 42.3003C1.14773 42.7483 1.75538 43 2.38897 43C3.02257 43 3.63022 42.7483 4.07823 42.3003C4.52625 41.8522 4.77795 41.2446 4.77795 40.611C4.77795 37.443 6.03642 34.4048 8.27652 32.1647C10.5166 29.9246 13.5548 28.6661 16.7228 28.6661C19.8908 28.6661 22.929 29.9246 25.1691 32.1647C27.4092 34.4048 28.6677 37.443 28.6677 40.611C28.6677 41.2446 28.9194 41.8522 29.3674 42.3003C29.8154 42.7483 30.4231 43 31.0567 43C31.6903 43 32.2979 42.7483 32.7459 42.3003C33.1939 41.8522 33.4456 41.2446 33.4456 40.611C33.4513 37.8121 32.7443 35.0579 31.3911 32.6079C32.4469 31.7737 33.7162 31.2535 35.0537 31.1069C36.3913 30.9602 37.7431 31.1931 38.9545 31.7789C40.1659 32.3647 41.1879 33.2796 41.9036 34.4191C42.6194 35.5585 42.9998 36.8764 43.0015 38.222C43.0015 38.8556 43.2532 39.4633 43.7013 39.9113C44.1493 40.3593 44.7569 40.611 45.3905 40.611C46.0241 40.611 46.6318 40.3593 47.0798 39.9113C47.5278 39.4633 47.7795 38.8556 47.7795 38.222C47.7795 35.054 46.521 32.0158 44.2809 29.7757C42.0408 27.5356 39.0026 26.2772 35.8346 26.2772Z" fill="#386A20"/>
</g>
</svg>
