<svg width="57" height="57" viewBox="0 0 57 57" fill="none" xmlns="http://www.w3.org/2000/svg">
<path id="Vector" d="M28.4973 0C21.8205 0 16.1187 4.17461 13.8597 10.0561C12.6105 9.69528 11.3984 9.4222 10.2658 9.21503C7.96756 8.79464 5.93217 8.6339 4.46784 8.5779C3.73424 8.54986 3.14009 8.54795 2.72331 8.55337C2.51481 8.55607 2.3504 8.56063 2.23478 8.56468L2.09841 8.57009C1.00152 8.62393 0.0835317 9.47603 0.0220871 10.5895L0.0191517 10.6494L0.013737 10.7857C0.00969009 10.9013 0.00512977 11.0658 0.00242234 11.2743C-0.00299254 11.691 -0.00108305 12.2852 0.0269603 13.0188C0.0829615 14.4831 0.243698 16.5185 0.664063 18.8167C1.04727 20.9118 1.65598 23.2786 2.62821 25.6494H2.13745C0.95698 25.6494 0 26.6064 0 27.7869V28.4993C0 44.239 12.7596 56.9987 28.4993 56.9987C44.239 56.9987 56.9987 44.239 56.9987 28.4993V27.7869C56.9987 26.6064 56.0417 25.6494 54.8612 25.6494H54.1399C54.1431 25.5311 54.1445 25.4123 54.1445 25.2932C54.1445 18.8096 49.7031 13.3633 43.6972 11.8304C41.983 5.0321 35.8279 0 28.4973 0ZM17.8809 11.5135C19.5432 7.2756 23.6698 4.2749 28.4973 4.2749C33.2998 4.2749 37.4085 7.24456 39.0877 11.4478C33.9883 11.8705 29.6707 15.0471 27.6256 19.4865C26.8712 18.3738 26.0054 17.3043 25.0113 16.3104C22.8764 14.1755 20.3931 12.6315 17.8809 11.5135ZM49.8696 25.2932C49.8696 25.4123 49.8673 25.5311 49.863 25.6494H30.6858L30.6348 25.5063C30.6334 25.4354 30.6325 25.3644 30.6325 25.2932C30.6325 19.981 34.9388 15.6746 40.2511 15.6746C45.5633 15.6746 49.8696 19.981 49.8696 25.2932ZM21.9886 19.3332C23.8195 21.164 25.1475 23.3675 26.1063 25.6494H20.121L15.0439 20.5752C14.2089 19.7407 12.8556 19.741 12.0211 20.576C11.1866 21.411 11.187 22.7643 12.0219 23.5989L14.0737 25.6494H7.31963C6.06968 23.1537 5.31476 20.4834 4.8692 18.0476C4.49326 15.9922 4.34883 14.1651 4.29873 12.8554L4.2985 12.8495L4.30448 12.8497C5.6142 12.8998 7.44126 13.0442 9.49664 13.4202C13.656 14.181 18.4992 15.8438 21.9886 19.3332ZM7.94433 41.324H49.0542C44.7739 48.1702 37.1686 52.7238 28.4993 52.7238C19.8302 52.7238 12.2247 48.1702 7.94433 41.324ZM4.31611 29.9243H52.6825C52.538 32.4194 52.0156 34.8131 51.1717 37.0491H5.82683C4.9832 34.8131 4.46086 32.4194 4.31611 29.9243ZM2.04617 8.57263L2.05871 8.572L2.09841 8.57009L2.04617 8.57263Z" fill="#386A20"/>
</svg>
