<svg width="35" height="33" viewBox="0 0 35 33" fill="none" xmlns="http://www.w3.org/2000/svg">
<g id="share">
<path id="Vector" d="M29.334 22.0015C27.8939 22.0027 26.5118 22.5688 25.4845 23.578L11.0031 17.1255V16.5023V15.8974L25.4845 9.42655C26.3915 10.3156 27.5784 10.8633 28.8434 10.9766C30.1085 11.0899 31.3738 10.7618 32.4244 10.0481C33.4749 9.33433 34.2461 8.27892 34.6068 7.06111C34.9675 5.84329 34.8956 4.53816 34.4032 3.36737C33.9108 2.19658 33.0283 1.23232 31.9057 0.638365C30.783 0.0444098 29.4893 -0.142622 28.2444 0.109035C26.9994 0.360693 25.88 1.03552 25.0762 2.01891C24.2723 3.0023 23.8337 4.23362 23.8347 5.50373V6.12698L9.3533 12.5795C8.58039 11.8201 7.60039 11.306 6.53632 11.1017C5.47225 10.8973 4.37153 11.0119 3.37234 11.431C2.37315 11.85 1.52002 12.5549 0.92005 13.4572C0.320077 14.3594 0 15.4188 0 16.5023C0 17.5858 0.320077 18.6452 0.92005 19.5474C1.52002 20.4496 2.37315 21.1545 3.37234 21.5736C4.37153 21.9926 5.47225 22.1072 6.53632 21.9029C7.60039 21.6986 8.58039 21.1844 9.3533 20.4251L23.8347 26.8959V27.5008C23.8347 28.5885 24.1572 29.6517 24.7615 30.5561C25.3658 31.4604 26.2246 32.1653 27.2295 32.5815C28.2344 32.9977 29.3401 33.1066 30.4068 32.8944C31.4736 32.6822 32.4535 32.1585 33.2226 31.3894C33.9916 30.6203 34.5154 29.6404 34.7276 28.5737C34.9398 27.5069 34.8309 26.4012 34.4146 25.3963C33.9984 24.3915 33.2936 23.5326 32.3892 22.9283C31.4849 22.3241 30.4216 22.0015 29.334 22.0015ZM29.334 3.67064C29.6965 3.67064 30.0509 3.77815 30.3524 3.97957C30.6538 4.181 30.8888 4.46729 31.0275 4.80224C31.1663 5.13719 31.2026 5.50577 31.1319 5.86135C31.0611 6.21694 30.8865 6.54356 30.6302 6.79992C30.3738 7.05629 30.0472 7.23087 29.6916 7.3016C29.336 7.37233 28.9674 7.33603 28.6325 7.19729C28.2975 7.05855 28.0112 6.82359 27.8098 6.52214C27.6084 6.22069 27.5009 5.86628 27.5009 5.50373C27.5009 5.01757 27.694 4.55131 28.0378 4.20754C28.3816 3.86377 28.8478 3.67064 29.334 3.67064ZM5.50381 18.3354C5.14126 18.3354 4.78685 18.2279 4.4854 18.0264C4.18395 17.825 3.949 17.5387 3.81025 17.2038C3.67151 16.8688 3.63521 16.5002 3.70594 16.1447C3.77667 15.7891 3.95126 15.4624 4.20762 15.2061C4.46398 14.9497 4.79061 14.7751 5.14619 14.7044C5.50177 14.6337 5.87035 14.67 6.2053 14.8087C6.54026 14.9475 6.82654 15.1824 7.02797 15.4839C7.22939 15.7853 7.3369 16.1397 7.3369 16.5023C7.3369 16.9884 7.14377 17.4547 6.8 17.7985C6.45623 18.1422 5.98997 18.3354 5.50381 18.3354ZM29.334 29.3339C28.9714 29.3339 28.617 29.2264 28.3156 29.025C28.0141 28.8236 27.7792 28.5373 27.6404 28.2023C27.5017 27.8674 27.4654 27.4988 27.5361 27.1432C27.6068 26.7876 27.7814 26.461 28.0378 26.2046C28.2942 25.9483 28.6208 25.7737 28.9764 25.703C29.332 25.6322 29.7005 25.6685 30.0355 25.8073C30.3704 25.946 30.6567 26.181 30.8581 26.4824C31.0596 26.7839 31.1671 27.1383 31.1671 27.5008C31.1671 27.987 30.974 28.4532 30.6302 28.797C30.2864 29.1408 29.8202 29.3339 29.334 29.3339Z" fill="#3F7824"/>
</g>
</svg>
