<svg width="57" height="57" viewBox="0 0 57 57" fill="none" xmlns="http://www.w3.org/2000/svg">
<g id="Box / undefined / Glyph: undefined">
<path id="Vector" d="M25.1532 5.96968C27.2992 5.09975 29.6993 5.09975 31.8452 5.96968L49.6538 13.1894C51.2222 13.8252 52.2484 15.3486 52.2484 17.041V39.9655C52.2484 41.6578 51.2222 43.1811 49.6538 43.8171L31.8452 51.0366C29.6993 51.9066 27.2992 51.9066 25.1532 51.0366L7.34465 43.8171C5.77623 43.1811 4.75 41.6578 4.75 39.9655V17.041C4.75 15.3486 5.77623 13.8252 7.34465 13.1894L25.1532 5.96968ZM30.5067 9.27108C29.2193 8.74912 27.7791 8.74912 26.4917 9.27108L21.9467 11.1136L39.8224 18.0652L46.1615 15.6176L30.5067 9.27108ZM34.8904 19.9695L17.1345 13.0645L10.9017 15.5913L28.5023 22.436L34.8904 19.9695ZM8.31238 39.9655C8.31238 40.2072 8.45899 40.4248 8.68304 40.5157L26.4917 47.7353C26.5667 47.7659 26.6427 47.7946 26.7187 47.8215V25.5647L8.31238 18.4066V39.9655ZM30.5067 47.7353L48.3153 40.5157C48.5395 40.4248 48.686 40.2072 48.686 39.9655V18.4616L30.2811 25.5677V47.821C30.3569 47.7942 30.4322 47.7657 30.5067 47.7353Z" fill="#386A20"/>
</g>
</svg>
