<svg width="15" height="15" viewBox="0 0 15 15" fill="none" xmlns="http://www.w3.org/2000/svg">
<g id="&#240;&#159;&#166;&#134; icon &#34;clock&#34;">
<path id="Vector" d="M9.82377 7.93217L8.25014 7.02888V3.7297C8.25014 3.53187 8.17112 3.34213 8.03047 3.20224C7.88981 3.06235 7.69904 2.98376 7.50013 2.98376C7.30121 2.98376 7.11044 3.06235 6.96979 3.20224C6.82913 3.34213 6.75011 3.53187 6.75011 3.7297V7.4594C6.75008 7.59037 6.78472 7.71904 6.85055 7.83246C6.91638 7.94589 7.01108 8.04007 7.12512 8.10555L9.07376 9.22446C9.15908 9.27349 9.25327 9.30533 9.35097 9.31815C9.44866 9.33098 9.54794 9.32453 9.64313 9.29918C9.73831 9.27383 9.82755 9.23007 9.90573 9.17041C9.98391 9.11075 10.0495 9.03636 10.0988 8.95148C10.148 8.8666 10.18 8.77289 10.1928 8.67572C10.2057 8.57855 10.1991 8.47982 10.1736 8.38516C10.1481 8.2905 10.104 8.20178 10.044 8.12405C9.98397 8.04633 9.90914 7.98113 9.82377 7.93217ZM7.50013 0C6.01674 0 4.56667 0.437486 3.33328 1.25714C2.09989 2.07679 1.13858 3.24179 0.570916 4.60481C0.00324968 5.96784 -0.145278 7.46768 0.144116 8.91466C0.43351 10.3616 1.14783 11.6908 2.19674 12.734C3.24565 13.7772 4.58204 14.4877 6.03693 14.7755C7.49181 15.0633 8.99983 14.9156 10.3703 14.351C11.7408 13.7864 12.9121 12.8303 13.7363 11.6036C14.5604 10.3769 15.0002 8.93473 15.0002 7.4594C14.998 5.48172 14.2071 3.58567 12.8011 2.18724C11.395 0.788805 9.4886 0.00219946 7.50013 0ZM7.50013 13.4269C6.31342 13.4269 5.15336 13.0769 4.16665 12.4212C3.17994 11.7655 2.41089 10.8335 1.95676 9.74308C1.50263 8.65265 1.3838 7.45278 1.61532 6.2952C1.84683 5.13761 2.41829 4.0743 3.25742 3.23973C4.09655 2.40516 5.16566 1.8368 6.32957 1.60655C7.49347 1.37629 8.69989 1.49446 9.79627 1.94613C10.8926 2.3978 11.8297 3.16267 12.489 4.14403C13.1483 5.12538 13.5002 6.27914 13.5002 7.4594C13.4984 9.04153 12.8657 10.5583 11.7408 11.6771C10.616 12.7958 9.09089 13.4251 7.50013 13.4269Z" fill="#808080"/>
</g>
</svg>
