<svg width="25" height="25" viewBox="0 0 25 25" fill="none" xmlns="http://www.w3.org/2000/svg">
<g id="&#240;&#159;&#166;&#134; icon &#34;clock&#34;">
<path id="Vector" d="M16.3726 13.2921L13.7499 11.7785V6.24995C13.7499 5.91843 13.6182 5.6005 13.3838 5.36608C13.1494 5.13166 12.8314 4.99996 12.4999 4.99996C12.1684 4.99996 11.8505 5.13166 11.616 5.36608C11.3816 5.6005 11.2499 5.91843 11.2499 6.24995V12.4999C11.2499 12.7194 11.3076 12.935 11.4173 13.125C11.527 13.3151 11.6848 13.4729 11.8749 13.5827L15.1226 15.4576C15.2648 15.5398 15.4218 15.5932 15.5846 15.6147C15.7474 15.6361 15.9129 15.6253 16.0715 15.5829C16.2301 15.5404 16.3789 15.4671 16.5091 15.3671C16.6394 15.2671 16.7488 15.1424 16.8309 15.0002C16.913 14.858 16.9662 14.701 16.9876 14.5381C17.009 14.3753 16.9982 14.2098 16.9556 14.0512C16.913 13.8926 16.8396 13.7439 16.7396 13.6137C16.6396 13.4834 16.5148 13.3742 16.3726 13.2921ZM12.4999 0C10.0277 0 7.61093 0.733107 5.55534 2.10661C3.49974 3.48012 1.89759 5.43234 0.951504 7.7164C0.00541601 10.0005 -0.242124 12.5138 0.240188 14.9385C0.722499 17.3633 1.913 19.5905 3.66114 21.3387C5.40929 23.0868 7.63656 24.2773 10.0613 24.7596C12.486 25.2419 14.9994 24.9944 17.2834 24.0483C19.5675 23.1022 21.5197 21.5001 22.8932 19.4445C24.2667 17.3889 24.9998 14.9722 24.9998 12.4999C24.9961 9.18586 23.678 6.0086 21.3346 3.66521C18.9912 1.32182 15.814 0.0036857 12.4999 0ZM12.4999 22.4998C10.5221 22.4998 8.58873 21.9133 6.94425 20.8145C5.29977 19.7157 4.01806 18.154 3.26119 16.3267C2.50432 14.4995 2.30628 12.4888 2.69213 10.549C3.07798 8.60922 4.03038 6.82741 5.4289 5.42889C6.82741 4.03038 8.60923 3.07798 10.549 2.69213C12.4888 2.30628 14.4995 2.50431 16.3267 3.26118C18.154 4.01805 19.7157 5.29977 20.8145 6.94425C21.9133 8.58872 22.4998 10.5221 22.4998 12.4999C22.4968 15.1511 21.4423 17.6929 19.5676 19.5676C17.6929 21.4423 15.1511 22.4968 12.4999 22.4998Z" fill="#386A20"/>
</g>
</svg>
