<svg width="44" height="44" viewBox="0 0 44 44" fill="none" xmlns="http://www.w3.org/2000/svg">
<g id="Box / undefined / Glyph: undefined">
<path id="Vector" d="M19.4159 4.6083C21.0725 3.93676 22.9252 3.93676 24.5818 4.6083L38.3289 10.1815C39.5396 10.6723 40.3318 11.8483 40.3318 13.1547V30.851C40.3318 32.1574 39.5396 33.3333 38.3289 33.8243L24.5818 39.3973C22.9252 40.0688 21.0725 40.0688 19.4159 39.3973L5.66876 33.8243C4.45803 33.3333 3.66585 32.1574 3.66585 30.851V13.1547C3.66585 11.8483 4.45803 10.6723 5.66876 10.1815L19.4159 4.6083ZM23.5485 7.15679C22.5547 6.75386 21.443 6.75386 20.4491 7.15679L16.9407 8.57909L30.7396 13.9453L35.6331 12.0559L23.5485 7.15679ZM26.9324 15.4153L13.226 10.0851L8.41462 12.0356L22.0012 17.3193L26.9324 15.4153ZM6.41579 30.851C6.41579 31.0377 6.52896 31.2056 6.70192 31.2758L20.4491 36.8488C20.5071 36.8725 20.5657 36.8947 20.6244 36.9154V19.7345L6.41579 14.2089V30.851ZM23.5485 36.8488L37.2957 31.2758C37.4687 31.2056 37.5819 31.0377 37.5819 30.851V14.2513L23.3744 19.7368V36.915C23.4328 36.8943 23.4909 36.8723 23.5485 36.8488Z" fill="#3F7824"/>
</g>
</svg>
