<svg width="37" height="33" viewBox="0 0 37 33" fill="none" xmlns="http://www.w3.org/2000/svg">
<g id="people">
<path id="Vector" d="M12.8338 14.6669C14.2842 14.6669 15.7021 14.2368 16.908 13.431C18.114 12.6252 19.054 11.4799 19.609 10.1399C20.1641 8.79984 20.3093 7.32532 20.0263 5.90277C19.7434 4.48022 19.0449 3.17352 18.0193 2.14792C16.9937 1.12232 15.687 0.423877 14.2645 0.140914C12.8419 -0.142049 11.3674 0.00317745 10.0274 0.558229C8.68738 1.11328 7.54205 2.05323 6.73624 3.25921C5.93043 4.46519 5.50033 5.88304 5.50033 7.33346C5.50033 9.27841 6.27296 11.1437 7.64825 12.519C9.02354 13.8943 10.8888 14.6669 12.8338 14.6669ZM12.8338 3.66673C13.559 3.66673 14.2679 3.88178 14.8709 4.28469C15.4739 4.68759 15.9439 5.26026 16.2214 5.93026C16.4989 6.60027 16.5715 7.33753 16.4301 8.0488C16.2886 8.76008 15.9394 9.41343 15.4266 9.92623C14.9137 10.439 14.2604 10.7882 13.5491 10.9297C12.8379 11.0712 12.1006 10.9986 11.4306 10.7211C10.7606 10.4435 10.1879 9.97357 9.78501 9.37058C9.38211 8.76759 9.16706 8.05867 9.16706 7.33346C9.16706 6.36098 9.55337 5.42833 10.241 4.74069C10.9287 4.05305 11.8613 3.66673 12.8338 3.66673Z" fill="#3F7824"/>
<path id="Vector_2" d="M27.5014 18.3336C28.5892 18.3336 29.6526 18.0111 30.5571 17.4067C31.4616 16.8023 32.1665 15.9433 32.5828 14.9383C32.9991 13.9333 33.108 12.8274 32.8958 11.7605C32.6836 10.6936 32.1598 9.71359 31.3906 8.94438C30.6214 8.17518 29.6413 7.65135 28.5744 7.43913C27.5075 7.22691 26.4016 7.33583 25.3966 7.75211C24.3916 8.1684 23.5326 8.87336 22.9282 9.77785C22.3239 10.6823 22.0013 11.7457 22.0013 12.8335C22.0013 14.2923 22.5808 15.6912 23.6123 16.7227C24.6437 17.7542 26.0427 18.3336 27.5014 18.3336ZM27.5014 11.0002C27.864 11.0002 28.2185 11.1077 28.52 11.3092C28.8215 11.5106 29.0564 11.7969 29.1952 12.1319C29.334 12.4669 29.3703 12.8356 29.2995 13.1912C29.2288 13.5468 29.0542 13.8735 28.7978 14.1299C28.5414 14.3863 28.2147 14.5609 27.8591 14.6317C27.5034 14.7024 27.1348 14.6661 26.7998 14.5273C26.4648 14.3886 26.1785 14.1536 25.977 13.8521C25.7756 13.5506 25.668 13.1961 25.668 12.8335C25.668 12.3473 25.8612 11.881 26.205 11.5372C26.5488 11.1933 27.0152 11.0002 27.5014 11.0002Z" fill="#3F7824"/>
<path id="Vector_3" d="M27.5005 20.1668C25.4688 20.1691 23.4954 20.8462 21.8904 22.0919C20.0946 20.3032 17.8094 19.0862 15.3229 18.5946C12.8365 18.1029 10.2601 18.3586 7.91871 19.3292C5.57734 20.2999 3.57582 21.9421 2.16656 24.0489C0.757307 26.1556 0.00342875 28.6324 0 31.167C0 31.6533 0.193157 32.1196 0.53698 32.4634C0.880802 32.8072 1.34713 33.0004 1.83336 33.0004C2.3196 33.0004 2.78593 32.8072 3.12975 32.4634C3.47357 32.1196 3.66673 31.6533 3.66673 31.167C3.66673 28.7358 4.63252 26.4042 6.35163 24.6851C8.07074 22.966 10.4024 22.0002 12.8335 22.0002C15.2647 22.0002 17.5964 22.966 19.3155 24.6851C21.0346 26.4042 22.0004 28.7358 22.0004 31.167C22.0004 31.6533 22.1935 32.1196 22.5373 32.4634C22.8812 32.8072 23.3475 33.0004 23.8337 33.0004C24.32 33.0004 24.7863 32.8072 25.1301 32.4634C25.4739 32.1196 25.6671 31.6533 25.6671 31.167C25.6715 29.0191 25.1289 26.9054 24.0904 25.0252C24.9006 24.385 25.8747 23.9858 26.9012 23.8733C27.9277 23.7608 28.9651 23.9395 29.8948 24.389C30.8244 24.8386 31.6087 25.5407 32.158 26.4152C32.7073 27.2896 32.9992 28.301 33.0005 29.3337C33.0005 29.8199 33.1937 30.2862 33.5375 30.63C33.8814 30.9739 34.3477 31.167 34.8339 31.167C35.3202 31.167 35.7865 30.9739 36.1303 30.63C36.4741 30.2862 36.6673 29.8199 36.6673 29.3337C36.6673 26.9025 35.7015 24.5708 33.9824 22.8517C32.2633 21.1326 29.9317 20.1668 27.5005 20.1668Z" fill="#3F7824"/>
</g>
</svg>
