<svg width="15" height="12" viewBox="0 0 15 12" fill="none" xmlns="http://www.w3.org/2000/svg">
<path id="Vector" d="M7.30113 3.11312L2.5002 7.18098V11.5714C2.5002 11.6851 2.54409 11.7941 2.62223 11.8745C2.70036 11.9548 2.80633 12 2.91683 12L5.83484 11.9922C5.94497 11.9917 6.05041 11.9463 6.1281 11.8659C6.20578 11.7856 6.24939 11.6769 6.24939 11.5636V8.99967C6.24939 8.88599 6.29328 8.77697 6.37142 8.69659C6.44955 8.6162 6.55552 8.57105 6.66602 8.57105H8.33256C8.44306 8.57105 8.54903 8.6162 8.62717 8.69659C8.7053 8.77697 8.7492 8.88599 8.7492 8.99967V11.5617C8.74902 11.6181 8.75967 11.674 8.78053 11.7262C8.8014 11.7783 8.83206 11.8257 8.87076 11.8657C8.90947 11.9056 8.95546 11.9373 9.00609 11.9589C9.05672 11.9806 9.11101 11.9917 9.16583 11.9917L12.0828 12C12.1933 12 12.2993 11.9548 12.3774 11.8745C12.4555 11.7941 12.4994 11.6851 12.4994 11.5714V7.17803L7.69954 3.11312C7.64311 3.06632 7.57281 3.0408 7.50033 3.0408C7.42785 3.0408 7.35756 3.06632 7.30113 3.11312ZM14.8847 5.87798L12.7077 4.03197V0.321464C12.7077 0.236207 12.6748 0.154441 12.6162 0.0941548C12.5576 0.0338685 12.4781 0 12.3953 0H10.937C10.8542 0 10.7747 0.0338685 10.7161 0.0941548C10.6575 0.154441 10.6246 0.236207 10.6246 0.321464V2.26659L8.29324 0.293336C8.06951 0.103935 7.78877 0.000378617 7.49903 0.000378617C7.20929 0.000378617 6.92855 0.103935 6.70482 0.293336L0.113402 5.87798C0.081761 5.90488 0.0555827 5.93794 0.0363633 5.97525C0.017144 6.01257 0.00526021 6.05342 0.00139108 6.09546C-0.00247805 6.1375 0.00174327 6.17992 0.0138138 6.22028C0.0258844 6.26065 0.0455677 6.29817 0.0717389 6.33071L0.73575 7.16116C0.76185 7.19381 0.793953 7.22084 0.830222 7.24071C0.86649 7.26058 0.906211 7.27289 0.947112 7.27695C0.988013 7.281 1.02929 7.27672 1.06858 7.26434C1.10787 7.25197 1.1444 7.23174 1.17608 7.20482L7.30113 2.01478C7.35756 1.96799 7.42785 1.94247 7.50033 1.94247C7.57281 1.94247 7.64311 1.96799 7.69954 2.01478L13.8248 7.20482C13.8565 7.23175 13.8929 7.252 13.9322 7.26441C13.9714 7.27683 14.0126 7.28117 14.0535 7.27719C14.0944 7.27321 14.1341 7.26099 14.1704 7.24122C14.2066 7.22144 14.2388 7.19451 14.2649 7.16196L14.9289 6.33151C14.9551 6.29879 14.9747 6.26107 14.9866 6.22053C14.9985 6.17999 15.0026 6.13742 14.9984 6.09528C14.9943 6.05313 14.9822 6.01224 14.9626 5.97495C14.9431 5.93765 14.9166 5.9047 14.8847 5.87798Z" fill="#777777"/>
</svg>
