<svg width="17" height="17" viewBox="0 0 17 17" fill="none" xmlns="http://www.w3.org/2000/svg">
<g id="&#240;&#159;&#166;&#134; icon &#34;message&#34;">
<path id="Vector" d="M13.3931 0.161102L1.56149 4.63566C1.0953 4.81294 0.695142 5.12968 0.415557 5.5427C0.135972 5.95572 -0.00942817 6.44492 -0.000820511 6.9436C0.00778715 7.44228 0.169984 7.92617 0.463656 8.32929C0.757328 8.73242 1.16818 9.03516 1.64021 9.19625L6.14435 10.7154C6.25129 10.7542 6.34942 10.814 6.43301 10.8912C6.5166 10.9683 6.58398 11.0614 6.63121 11.1649L8.50377 15.534C8.66348 15.9051 8.91339 16.2304 9.23079 16.4803C9.5482 16.7303 9.92304 16.8969 10.3212 16.9652C10.7194 17.0334 11.1284 17.001 11.5109 16.871C11.8934 16.741 12.2374 16.5175 12.5115 16.2207C12.7654 15.9402 12.9534 15.6064 13.0617 15.2438L16.581 3.09376C16.7049 2.66195 16.7064 2.20421 16.5853 1.77159C16.4643 1.33897 16.2254 0.94849 15.8953 0.643725C15.5653 0.338959 15.1571 0.131891 14.7162 0.0456221C14.2753 -0.0406458 13.8191 -0.00272214 13.3985 0.155165L13.3931 0.161102ZM15.0248 2.64676L11.5054 14.7968C11.4571 14.9543 11.3617 15.0933 11.2321 15.1951C11.1025 15.2969 10.9448 15.3566 10.7803 15.3663C10.6158 15.3759 10.4522 15.3351 10.3116 15.2492C10.171 15.1632 10.06 15.0364 9.99346 14.8856L8.11542 10.5225C8.08981 10.4648 8.06084 10.4087 8.02866 10.3544L11.8061 6.26353C11.9515 6.10607 12.0284 5.89729 12.0198 5.68312C12.0113 5.46896 11.918 5.26696 11.7606 5.12156C11.6031 4.97615 11.3943 4.89926 11.1802 4.90779C10.966 4.91632 10.764 5.00958 10.6186 5.16704L6.84119 9.25787C6.78451 9.23011 6.72625 9.2057 6.66671 9.18475L2.16805 7.6597C2.01245 7.60541 1.87716 7.50485 1.78032 7.37149C1.68349 7.23813 1.62974 7.07836 1.62629 6.91359C1.62284 6.74882 1.66985 6.58693 1.76101 6.44963C1.85217 6.31234 1.98313 6.2062 2.13633 6.14544L13.9679 1.67088C14.1075 1.61964 14.2586 1.60792 14.4045 1.63702C14.5503 1.66612 14.6853 1.73491 14.7946 1.83581C14.9039 1.93671 14.9832 2.06581 15.0238 2.2089C15.0644 2.35198 15.0647 2.5035 15.0248 2.64676Z" fill="white"/>
</g>
</svg>
