<svg width="14" height="23" viewBox="0 0 14 23" fill="none" xmlns="http://www.w3.org/2000/svg">
<path id="Vector" d="M2.29271 22.9999C1.99271 23.0017 1.69532 22.9437 1.4176 22.8295C1.13987 22.7152 0.887264 22.5468 0.674269 22.334C0.460616 22.1205 0.291036 21.8665 0.175309 21.5867C0.0595824 21.3068 0 21.0067 0 20.7036C0 20.4004 0.0595824 20.1003 0.175309 19.8204C0.291036 19.5406 0.460616 19.2866 0.674269 19.0731L8.21938 11.5181L0.970603 3.91713C0.546046 3.48688 0.307745 2.90486 0.307745 2.2982C0.307745 1.69153 0.546046 1.10951 0.970603 0.679261C1.18251 0.464026 1.43462 0.293189 1.7124 0.176606C1.99018 0.0600224 2.28812 0 2.58904 0C2.88996 0 3.1879 0.0600224 3.46568 0.176606C3.74345 0.293189 3.99557 0.464026 4.20748 0.679261L13.0063 9.86471C13.424 10.294 13.6579 10.8711 13.6579 11.4722C13.6579 12.0732 13.424 12.6504 13.0063 13.0796L3.88835 22.2651C3.68375 22.4877 3.43739 22.6672 3.16352 22.7933C2.88964 22.9195 2.59367 22.9897 2.29271 22.9999Z" fill="white"/>
</svg>
