<svg width="17" height="17" viewBox="0 0 17 17" fill="none" xmlns="http://www.w3.org/2000/svg">
<g id="&#240;&#159;&#166;&#134; icon &#34;message&#34;">
<path id="Vector" d="M13.3951 0.161102L1.5635 4.63566C1.09732 4.81294 0.697158 5.12968 0.417573 5.5427C0.137989 5.95572 -0.00741192 6.44492 0.00119574 6.9436C0.0098034 7.44228 0.172 7.92617 0.465672 8.32929C0.759344 8.73242 1.1702 9.03516 1.64222 9.19625L6.14636 10.7154C6.2533 10.7542 6.35143 10.814 6.43502 10.8912C6.51862 10.9683 6.58599 11.0614 6.63322 11.1649L8.50579 15.534C8.66549 15.9051 8.9154 16.2304 9.23281 16.4803C9.55022 16.7303 9.92505 16.8969 10.3233 16.9652C10.7215 17.0334 11.1304 17.001 11.5129 16.871C11.8954 16.741 12.2394 16.5175 12.5135 16.2207C12.7675 15.9402 12.9554 15.6064 13.0637 15.2438L16.583 3.09376C16.7069 2.66195 16.7084 2.20421 16.5874 1.77159C16.4663 1.33897 16.2274 0.94849 15.8974 0.643725C15.5673 0.338959 15.1591 0.131891 14.7182 0.0456221C14.2773 -0.0406458 13.8211 -0.00272214 13.4006 0.155165L13.3951 0.161102ZM15.0268 2.64676L11.5075 14.7968C11.4591 14.9543 11.3637 15.0933 11.2341 15.1951C11.1045 15.2969 10.9468 15.3566 10.7823 15.3663C10.6178 15.3759 10.4543 15.3351 10.3136 15.2492C10.173 15.1632 10.062 15.0364 9.99548 14.8856L8.11744 10.5225C8.09182 10.4648 8.06285 10.4087 8.03068 10.3544L11.8081 6.26353C11.9535 6.10607 12.0304 5.89729 12.0219 5.68312C12.0133 5.46896 11.9201 5.26696 11.7626 5.12156C11.6051 4.97615 11.3963 4.89926 11.1822 4.90779C10.968 4.91632 10.766 5.00958 10.6206 5.16704L6.84321 9.25787C6.78652 9.23011 6.72826 9.2057 6.66873 9.18475L2.17007 7.6597C2.01446 7.60541 1.87917 7.50485 1.78234 7.37149C1.68551 7.23813 1.63176 7.07836 1.62831 6.91359C1.62486 6.74882 1.67186 6.58693 1.76303 6.44963C1.85419 6.31234 1.98515 6.2062 2.13835 6.14544L13.9699 1.67088C14.1095 1.61964 14.2606 1.60792 14.4065 1.63702C14.5523 1.66612 14.6873 1.73491 14.7966 1.83581C14.9059 1.93671 14.9852 2.06581 15.0258 2.2089C15.0664 2.35198 15.0667 2.5035 15.0268 2.64676Z" fill="white"/>
</g>
</svg>
