<svg width="21" height="19" viewBox="0 0 21 19" fill="none" xmlns="http://www.w3.org/2000/svg">
<g id="&#240;&#159;&#166;&#134; icon &#34;headphones&#34;">
<path id="Vector" d="M10.5008 0C9.12186 0 7.75637 0.269747 6.48235 0.79384C5.20832 1.31793 4.05072 2.08611 3.07563 3.0545C1.10634 5.01027 0 7.66286 0 10.4287V17.7288C0 18.0054 0.110634 18.2707 0.307563 18.4663C0.504492 18.6618 0.771585 18.7717 1.05008 18.7717H4.20034C5.03584 18.7717 5.83712 18.4421 6.42791 17.8554C7.01869 17.2686 7.35059 16.4729 7.35059 15.6431V13.5573C7.35059 12.7276 7.01869 11.9318 6.42791 11.3451C5.83712 10.7583 5.03584 10.4287 4.20034 10.4287H2.10017C2.10017 8.21603 2.98524 6.09396 4.56067 4.52935C6.1361 2.96474 8.27285 2.08575 10.5008 2.08575C12.7288 2.08575 14.8656 2.96474 16.441 4.52935C18.0165 6.09396 18.9015 8.21603 18.9015 10.4287H16.8014C15.9659 10.4287 15.1646 10.7583 14.5738 11.3451C13.983 11.9318 13.6511 12.7276 13.6511 13.5573V15.6431C13.6511 16.4729 13.983 17.2686 14.5738 17.8554C15.1646 18.4421 15.9659 18.7717 16.8014 18.7717H19.9516C20.2301 18.7717 20.4972 18.6618 20.6941 18.4663C20.8911 18.2707 21.0017 18.0054 21.0017 17.7288V10.4287C21.0017 7.66286 19.8954 5.01027 17.9261 3.0545C15.9568 1.09874 13.2858 0 10.5008 0ZM4.20034 12.5145C4.47884 12.5145 4.74593 12.6243 4.94286 12.8199C5.13979 13.0155 5.25042 13.2808 5.25042 13.5573V15.6431C5.25042 15.9197 5.13979 16.1849 4.94286 16.3805C4.74593 16.5761 4.47884 16.686 4.20034 16.686H2.10017V12.5145H4.20034ZM18.9015 16.686H16.8014C16.5229 16.686 16.2558 16.5761 16.0588 16.3805C15.8619 16.1849 15.7513 15.9197 15.7513 15.6431V13.5573C15.7513 13.2808 15.8619 13.0155 16.0588 12.8199C16.2558 12.6243 16.5229 12.5145 16.8014 12.5145H18.9015V16.686Z" fill="#3F7824"/>
</g>
</svg>
