<svg width="59" height="59" viewBox="0 0 59 59" fill="none" xmlns="http://www.w3.org/2000/svg">
<g id="Frame 1380">
<path id="Vector" d="M34.3926 41.8111C34.7162 41.813 35.0369 41.751 35.3364 41.6287C35.6359 41.5063 35.9084 41.3261 36.1381 41.0982C36.3685 40.8697 36.5514 40.5978 36.6762 40.2982C36.801 39.9986 36.8652 39.6773 36.8652 39.3528C36.8652 39.0283 36.801 38.707 36.6762 38.4074C36.5514 38.1078 36.3685 37.8359 36.1381 37.6074L28.001 29.5195L35.8185 21.3824C36.2763 20.9218 36.5333 20.2987 36.5333 19.6493C36.5333 18.9998 36.2763 18.3767 35.8185 17.9161C35.5899 17.6857 35.3181 17.5028 35.0185 17.378C34.7189 17.2532 34.3976 17.189 34.0731 17.189C33.7485 17.189 33.4272 17.2532 33.1276 17.378C32.8281 17.5028 32.5562 17.6857 32.3276 17.9161L22.8385 27.7495C22.3881 28.209 22.1357 28.8268 22.1357 29.4703C22.1357 30.1138 22.3881 30.7316 22.8385 31.1911L32.6718 41.0245C32.8925 41.2628 33.1582 41.455 33.4535 41.59C33.7489 41.725 34.0681 41.8002 34.3926 41.8111Z" fill="#3F7824"/>
</g>
</svg>
