<svg width="14" height="23" viewBox="0 0 14 23" fill="none" xmlns="http://www.w3.org/2000/svg">
<path id="Vector" d="M11.3654 22.9999C11.6654 23.0017 11.9627 22.9437 12.2405 22.8295C12.5182 22.7152 12.7708 22.5468 12.9838 22.334C13.1975 22.1205 13.367 21.8665 13.4828 21.5867C13.5985 21.3068 13.6581 21.0067 13.6581 20.7036C13.6581 20.4004 13.5985 20.1003 13.4828 19.8204C13.367 19.5406 13.1975 19.2866 12.9838 19.0731L5.43869 11.5181L12.6875 3.91713C13.112 3.48688 13.3503 2.90486 13.3503 2.2982C13.3503 1.69153 13.112 1.10951 12.6875 0.679261C12.4756 0.464026 12.2234 0.293189 11.9457 0.176606C11.6679 0.0600224 11.3699 0 11.069 0C10.7681 0 10.4702 0.0600224 10.1924 0.176606C9.91461 0.293189 9.6625 0.464026 9.45059 0.679261L0.651768 9.86471C0.234104 10.294 0.000160002 10.8711 0.000160002 11.4722C0.000160002 12.0732 0.234104 12.6504 0.651768 13.0796L9.76972 22.2651C9.97432 22.4877 10.2207 22.6672 10.4946 22.7933C10.7684 22.9195 11.0644 22.9897 11.3654 22.9999Z" fill="white"/>
</svg>
