<svg width="38" height="21" viewBox="0 0 38 21" fill="none" xmlns="http://www.w3.org/2000/svg">
<g id="Component 63">
<rect x="0.5" y="0.5" width="37" height="20" rx="3.5" stroke="#3F7824"/>
<path id="Vector" d="M14.5469 6.42947C14.5469 6.21871 14.7177 6.04785 14.9285 6.04785H15.2126C15.6963 6.04785 15.9858 6.37299 16.1514 6.67523C16.2618 6.8767 16.3417 7.11038 16.4041 7.32193C16.421 7.3206 16.4382 7.31992 16.4555 7.31992H22.8149C23.2374 7.31992 23.5424 7.72414 23.4266 8.13038L22.4965 11.3915C22.3251 11.9926 21.7759 12.4071 21.1508 12.4071H18.1241C17.4938 12.4071 16.9414 11.9858 16.7746 11.3781L16.3876 9.96812L15.7471 7.80625L15.7461 7.80246C15.6669 7.51354 15.5925 7.24362 15.482 7.04195C15.3747 6.8461 15.2892 6.81109 15.2126 6.81109H14.9285C14.7177 6.81109 14.5469 6.64023 14.5469 6.42947ZM17.1282 9.7828L17.5107 11.1761C17.5865 11.4524 17.8376 11.6438 18.1241 11.6438H21.1508C21.4349 11.6438 21.6846 11.4554 21.7625 11.1822L22.6463 8.08316H16.6258L17.1212 9.75558C17.1239 9.76464 17.1263 9.77369 17.1282 9.7828ZM18.8722 13.9347C18.8722 14.4967 18.4166 14.9523 17.8545 14.9523C17.2924 14.9523 16.8368 14.4967 16.8368 13.9347C16.8368 13.3726 17.2924 12.917 17.8545 12.917C18.4166 12.917 18.8722 13.3726 18.8722 13.9347ZM18.1089 13.9347C18.1089 13.7942 17.995 13.6803 17.8545 13.6803C17.714 13.6803 17.6 13.7942 17.6 13.9347C17.6 14.0752 17.714 14.1891 17.8545 14.1891C17.995 14.1891 18.1089 14.0752 18.1089 13.9347ZM22.4342 13.9347C22.4342 14.4967 21.9786 14.9523 21.4165 14.9523C20.8544 14.9523 20.3988 14.4967 20.3988 13.9347C20.3988 13.3726 20.8544 12.917 21.4165 12.917C21.9786 12.917 22.4342 13.3726 22.4342 13.9347ZM21.6709 13.9347C21.6709 13.7942 21.557 13.6803 21.4165 13.6803C21.276 13.6803 21.1621 13.7942 21.1621 13.9347C21.1621 14.0752 21.276 14.1891 21.4165 14.1891C21.557 14.1891 21.6709 14.0752 21.6709 13.9347Z" fill="#3F7824"/>
</g>
</svg>
