<svg width="13" height="14" viewBox="0 0 13 14" fill="none" xmlns="http://www.w3.org/2000/svg">
<g id="&#240;&#159;&#166;&#134; icon &#34;google&#34;">
<path id="Vector" d="M6.6297 2.63748C7.5721 2.62162 8.48278 2.97788 9.16427 3.629L11.066 1.72732C9.86584 0.600172 8.27602 -0.0186914 6.6297 0.000430275C4.12282 -0.000531115 1.82993 1.41299 0.704629 3.65312L2.91975 5.37096C3.44208 3.75837 4.93475 2.65857 6.6297 2.63748Z" fill="#EA4335"/>
<path id="Vector_2" d="M0.705225 3.6518C-0.235075 5.52551 -0.235075 7.73328 0.705225 9.60699L2.92031 7.88915C2.64309 7.0722 2.64309 6.18661 2.92031 5.36965L0.705225 3.6518Z" fill="#FFC700"/>
<path id="Vector_3" d="M8.87496 9.99008C7.01582 11.1834 4.54131 10.6437 3.34799 8.78452C3.16864 8.5051 3.02477 8.20444 2.91972 7.88946L0.704629 9.6073C1.82991 11.8474 4.12282 13.261 6.6297 13.26C8.2437 13.3038 9.81342 12.7291 11.0177 11.6537L8.87496 9.99008Z" fill="#34A853"/>
<path id="Vector_4" d="M12.8751 5.42524H6.63063V7.98994H10.1989C10.0497 8.8097 9.57173 9.53274 8.87588 9.99109L11.0186 11.6547C12.3382 10.3838 13.0568 8.61258 12.9957 6.78145C12.9961 6.32667 12.9557 5.87282 12.8751 5.42524Z" fill="#4285F4"/>
</g>
</svg>
