<svg width="59" height="59" viewBox="0 0 59 59" fill="none" xmlns="http://www.w3.org/2000/svg">
<g id="Frame 1381">
<path id="Vector" d="M24.6074 17.1889C24.2838 17.187 23.9631 17.249 23.6636 17.3713C23.3641 17.4937 23.0916 17.6739 22.8619 17.9018C22.6315 18.1303 22.4486 18.4022 22.3238 18.7018C22.199 19.0014 22.1348 19.3227 22.1348 19.6472C22.1348 19.9717 22.199 20.293 22.3238 20.5926C22.4486 20.8922 22.6315 21.1641 22.8619 21.3926L30.999 29.4805L23.1815 37.6176C22.7237 38.0782 22.4667 38.7013 22.4667 39.3507C22.4667 40.0002 22.7237 40.6233 23.1815 41.0839C23.4101 41.3143 23.6819 41.4972 23.9815 41.622C24.2811 41.7468 24.6024 41.811 24.9269 41.811C25.2515 41.811 25.5728 41.7468 25.8724 41.622C26.1719 41.4972 26.4438 41.3143 26.6724 41.0839L36.1615 31.2505C36.6119 30.791 36.8643 30.1732 36.8643 29.5297C36.8643 28.8862 36.6119 28.2684 36.1615 27.8089L26.3282 17.9755C26.1075 17.7372 25.8418 17.545 25.5465 17.41C25.2511 17.275 24.9319 17.1998 24.6074 17.1889Z" fill="#3F7824"/>
</g>
</svg>
