<svg width="58" height="58" viewBox="0 0 58 58" fill="none" xmlns="http://www.w3.org/2000/svg">
<g id="Comment Note / undefined / Glyph: undefined">
<path id="Vector" d="M29.001 7.24984C29.001 4.58051 26.8371 2.41659 24.1677 2.41659H7.25134C4.58193 2.41659 2.41808 4.58051 2.41808 7.24984V21.7496C2.41808 24.419 4.58193 26.5829 7.25134 26.5829H24.1677C26.8371 26.5829 29.001 24.419 29.001 21.7496V7.24984ZM22.9594 9.66647C23.6266 9.66647 24.1677 10.2075 24.1677 10.8748C24.1677 11.5421 23.6266 12.0831 22.9594 12.0831H8.45965C7.79242 12.0831 7.25134 11.5421 7.25134 10.8748C7.25134 10.2075 7.79242 9.66647 8.45965 9.66647H22.9594ZM22.9594 16.9163C23.6266 16.9163 24.1677 17.4573 24.1677 18.1247C24.1677 18.792 23.6266 19.333 22.9594 19.333H8.45965C7.79242 19.333 7.25134 18.792 7.25134 18.1247C7.25134 17.4573 7.79242 16.9163 8.45965 16.9163H22.9594Z" fill="white"/>
<path id="Vector_2" d="M45.3128 7.25024H31.4172V10.8752H45.3128C47.6485 10.8752 49.5419 12.7686 49.5419 15.1043V35.6456C49.5419 37.9813 47.6485 39.8747 45.3128 39.8747H39.8783L39.8757 48.9385L27.7596 39.8747H12.6883C10.3527 39.8747 8.45924 37.9813 8.45924 35.6456V28.9999H7.25092C6.40365 28.9999 5.59022 28.8544 4.83429 28.5874V35.6456C4.83429 39.9832 8.35073 43.4996 12.6883 43.4996H26.5537L38.6703 52.5637C40.0062 53.563 41.8993 53.2899 42.8986 51.954C43.2892 51.4315 43.5003 50.7969 43.5003 50.1451L43.5022 43.4996H45.3128C49.6505 43.4996 53.1668 39.9832 53.1668 35.6456V15.1043C53.1668 10.7666 49.6505 7.25024 45.3128 7.25024Z" fill="white"/>
</g>
</svg>
