<svg width="9" height="9" viewBox="0 0 9 9" fill="none" xmlns="http://www.w3.org/2000/svg">
<path id="Vector" d="M3.53574 6.42857H2.57142V0.321429C2.57142 0.23618 2.53756 0.154424 2.47728 0.0941442C2.417 0.0338647 2.33524 1.6807e-09 2.24999 1.6807e-09H1.60711C1.52186 1.6807e-09 1.4401 0.0338647 1.37982 0.0941442C1.31954 0.154424 1.28568 0.23618 1.28568 0.321429V6.42857H0.321363C0.0362889 6.42857 -0.107755 6.77491 0.0945494 6.97721L1.70174 8.90578C1.76201 8.96601 1.84374 8.99985 1.92895 8.99985C2.01417 8.99985 2.09589 8.96601 2.15617 8.90578L3.76335 6.97721C3.96465 6.77531 3.82141 6.42857 3.53574 6.42857ZM8.35729 5.14286H5.7858C5.70055 5.14286 5.61879 5.17672 5.55851 5.237C5.49822 5.29728 5.46436 5.37904 5.46436 5.46429V6.10714C5.46436 6.19239 5.49822 6.27415 5.55851 6.33443C5.61879 6.39471 5.70055 6.42857 5.7858 6.42857H6.91083L5.68012 7.84386C5.61226 7.90418 5.55795 7.97819 5.52076 8.06102C5.48357 8.14384 5.46435 8.23361 5.46436 8.3244V8.67857C5.46436 8.76382 5.49822 8.84558 5.55851 8.90586C5.61879 8.96614 5.70055 9 5.7858 9H8.35729C8.44254 9 8.5243 8.96614 8.58458 8.90586C8.64487 8.84558 8.67873 8.76382 8.67873 8.67857V8.03571C8.67873 7.95047 8.64487 7.86871 8.58458 7.80843C8.5243 7.74815 8.44254 7.71429 8.35729 7.71429H7.23226L8.46297 6.299C8.53083 6.23868 8.58514 6.16467 8.62233 6.08184C8.65952 5.99902 8.67874 5.90925 8.67873 5.81846V5.46429C8.67873 5.37904 8.64487 5.29728 8.58458 5.237C8.5243 5.17672 8.44254 5.14286 8.35729 5.14286ZM8.98128 3.42763L7.79056 0.213348C7.76826 0.150904 7.7272 0.0968818 7.673 0.0586869C7.6188 0.020492 7.55411 -6.77705e-06 7.48781 1.6807e-09H6.65528C6.58898 -6.77705e-06 6.52429 0.020492 6.47009 0.0586869C6.41589 0.0968818 6.37483 0.150904 6.35253 0.213348L5.16181 3.42763C5.14449 3.47613 5.13908 3.52807 5.14603 3.57909C5.15298 3.63011 5.17209 3.67872 5.20174 3.72082C5.23139 3.76291 5.27073 3.79727 5.31643 3.82099C5.36213 3.84472 5.41287 3.85712 5.46436 3.85714H5.96319C6.03118 3.85717 6.09742 3.83563 6.1524 3.79564C6.20737 3.75564 6.24825 3.69924 6.26916 3.63455L6.35795 3.375H7.78433L7.87293 3.63455C7.89388 3.69937 7.93488 3.75587 7.99002 3.79587C8.04515 3.83588 8.11158 3.85734 8.1797 3.85714H8.67873C8.73022 3.85712 8.78096 3.84472 8.82666 3.82099C8.87236 3.79727 8.9117 3.76291 8.94135 3.72082C8.971 3.67872 8.99011 3.63011 8.99706 3.57909C9.00401 3.52807 8.9986 3.47613 8.98128 3.42763ZM6.74227 2.25L7.07155 1.28571L7.40082 2.25H6.74227Z" fill="#3F7824"/>
</svg>
