<svg width="4" height="7" viewBox="0 0 4 7" fill="none" xmlns="http://www.w3.org/2000/svg">
<g id="&#240;&#159;&#166;&#134; icon &#34;question&#34;">
<path id="Vector" d="M3.81233 2.04166C3.81232 1.59221 3.66689 1.15533 3.39859 0.798769C3.1303 0.442207 2.75414 0.185889 2.32844 0.069567C1.90274 -0.0467547 1.45131 -0.0165793 1.04414 0.155413C0.636975 0.327406 0.296836 0.631604 0.0764742 1.02083C0.000715149 1.15483 -0.0197613 1.31404 0.0195465 1.46343C0.0588542 1.61283 0.154729 1.74019 0.286092 1.81752C0.417455 1.89485 0.573553 1.91581 0.720067 1.8758C0.866582 1.83579 0.99152 1.73808 1.06741 1.60416C1.14283 1.47127 1.25114 1.36091 1.38153 1.28413C1.51191 1.20735 1.65978 1.16684 1.81034 1.16666C2.03789 1.16666 2.25613 1.25885 2.41703 1.42294C2.57794 1.58703 2.66834 1.80959 2.66834 2.04166C2.66834 2.27372 2.57794 2.49628 2.41703 2.66037C2.25613 2.82446 2.03789 2.91665 1.81034 2.91665H1.80894C1.7722 2.9204 1.73592 2.92797 1.70068 2.93922C1.66214 2.94331 1.62409 2.95125 1.58708 2.96294C1.55558 2.98039 1.52579 3.00087 1.49812 3.0241C1.46527 3.04232 1.43424 3.06377 1.40546 3.08812C1.37974 3.11942 1.3573 3.15338 1.3385 3.18944C1.31766 3.21575 1.29915 3.24389 1.2832 3.27354C1.27077 3.31375 1.26255 3.35518 1.25869 3.39716C1.24873 3.4307 1.24192 3.46512 1.23834 3.49998V4.08331L1.23967 4.08993L1.2403 4.3764C1.24069 4.53085 1.30113 4.67884 1.40835 4.78792C1.51558 4.89701 1.66084 4.95828 1.8123 4.9583H1.81369C1.96539 4.95791 2.11073 4.89609 2.21774 4.78643C2.32474 4.67677 2.38466 4.52825 2.38429 4.37355L2.38342 3.98775C2.795 3.86297 3.15623 3.60631 3.4136 3.2558C3.67097 2.90528 3.81078 2.47955 3.81233 2.04166ZM1.40843 6.00246C1.32812 6.08369 1.27323 6.18738 1.2507 6.30042C1.22816 6.41346 1.239 6.53078 1.28184 6.63754C1.32467 6.7443 1.39759 6.83571 1.49136 6.90022C1.58513 6.96473 1.69555 6.99944 1.80866 6.99995C1.96036 6.99869 2.10581 6.93814 2.21504 6.83079C2.32121 6.72013 2.38066 6.57146 2.38066 6.41665C2.38066 6.26183 2.32121 6.11317 2.21504 6.00251C2.10554 5.89844 1.96143 5.84057 1.81175 5.84056C1.66206 5.84055 1.51794 5.8984 1.40843 6.00246Z" fill="#3F7824"/>
</g>
</svg>
