<svg width="17" height="17" viewBox="0 0 17 17" fill="none" xmlns="http://www.w3.org/2000/svg">
<g id="&#240;&#159;&#166;&#134; icon &#34;message&#34;">
<path id="Vector" d="M13.3935 0.160603L1.56153 4.63529C1.09534 4.81258 0.695162 5.12933 0.415569 5.54236C0.135976 5.95539 -0.00942845 6.44461 -0.000820535 6.9433C0.00778738 7.44199 0.169989 7.9259 0.46367 8.32903C0.757351 8.73217 1.16822 9.03493 1.64025 9.19602L6.14453 10.7152C6.25147 10.754 6.34961 10.8138 6.4332 10.891C6.51679 10.9682 6.58417 11.0612 6.6314 11.1648L8.50402 15.5339C8.66373 15.905 8.91365 16.2303 9.23107 16.4803C9.54848 16.7302 9.92333 16.8969 10.3215 16.9652C10.7198 17.0334 11.1287 17.001 11.5112 16.871C11.8938 16.741 12.2377 16.5175 12.5119 16.2207C12.7658 15.9401 12.9538 15.6063 13.062 15.2437L16.5814 3.09335C16.7054 2.66153 16.7069 2.20377 16.5858 1.77113C16.4648 1.3385 16.2259 0.948014 15.8958 0.64324C15.5658 0.338465 15.1575 0.131391 14.7166 0.0451194C14.2757 -0.041151 13.8195 -0.0032263 13.3989 0.154665L13.3935 0.160603ZM15.0252 2.64634L11.5058 14.7967C11.4574 14.9542 11.362 15.0932 11.2324 15.195C11.1028 15.2968 10.9452 15.3566 10.7806 15.3662C10.6161 15.3759 10.4525 15.335 10.3119 15.2491C10.1713 15.1632 10.0603 15.0363 9.99376 14.8855L8.11566 10.5223C8.09005 10.4646 8.06108 10.4085 8.0289 10.3542L11.8064 6.26322C11.9518 6.10574 12.0287 5.89696 12.0202 5.68279C12.0117 5.46862 11.9184 5.26661 11.7609 5.1212C11.6035 4.9758 11.3947 4.8989 11.1805 4.90743C10.9663 4.91596 10.7643 5.00922 10.6189 5.16669L6.84139 9.25764C6.78471 9.22988 6.72645 9.20547 6.66691 9.18452L2.16812 7.65942C2.0125 7.60513 1.87721 7.50457 1.78038 7.3712C1.68354 7.23784 1.62979 7.07806 1.62634 6.91329C1.62289 6.74851 1.6699 6.58662 1.76106 6.44932C1.85223 6.31202 1.98319 6.20588 2.13639 6.14512L13.9683 1.67043C14.108 1.61918 14.259 1.60746 14.4049 1.63656C14.5507 1.66566 14.6858 1.73445 14.795 1.83536C14.9043 1.93627 14.9836 2.06537 15.0242 2.20846C15.0648 2.35155 15.0652 2.50307 15.0252 2.64634Z" fill="white"/>
</g>
</svg>
