<svg width="56" height="56" viewBox="0 0 56 56" fill="none" xmlns="http://www.w3.org/2000/svg">
<g id="Group 798">
<circle id="Ellipse 76" cx="28.0001" cy="28.0001" r="28.0001" fill="#3F7824"/>
<path id="Vector" d="M23.5094 39.1769C23.2125 39.1786 22.9182 39.1213 22.6433 39.0082C22.3684 38.8951 22.1184 38.7284 21.9076 38.5178C21.6962 38.3065 21.5283 38.0551 21.4138 37.7782C21.2993 37.5012 21.2403 37.2042 21.2403 36.9041C21.2403 36.6041 21.2993 36.3071 21.4138 36.0301C21.5283 35.7532 21.6962 35.5018 21.9076 35.2905L29.375 27.8133L22.2009 20.2906C21.7807 19.8647 21.5449 19.2887 21.5449 18.6883C21.5449 18.0879 21.7807 17.5118 22.2009 17.086C22.4106 16.873 22.6602 16.7039 22.9351 16.5885C23.21 16.4732 23.5049 16.4138 23.8027 16.4138C24.1005 16.4138 24.3954 16.4732 24.6703 16.5885C24.9452 16.7039 25.1947 16.873 25.4045 17.086L34.1127 26.1769C34.5261 26.6017 34.7576 27.1729 34.7576 27.7678C34.7576 28.3627 34.5261 28.9339 34.1127 29.3587L25.0886 38.4496C24.8861 38.6699 24.6423 38.8476 24.3712 38.9724C24.1002 39.0972 23.8073 39.1667 23.5094 39.1769Z" fill="white"/>
</g>
</svg>
