<svg width="26" height="25" viewBox="0 0 26 25" fill="none" xmlns="http://www.w3.org/2000/svg">
<g id="&#240;&#159;&#166;&#134; icon &#34;star&#34;">
<path id="Vector" d="M25.9803 9.92573C26.1102 9.27622 25.5906 8.49681 24.9411 8.49681L17.5367 7.4576L14.1593 0.702709C14.0294 0.442905 13.8995 0.313003 13.6397 0.183102C12.9902 -0.206604 12.2108 0.0532 11.8211 0.702709L8.57351 7.4576L1.16912 8.49681C0.779411 8.49681 0.519607 8.62671 0.389705 8.88652C-0.129902 9.40612 -0.129902 10.1855 0.389705 10.7051L5.71568 15.9012L4.41666 23.3056C4.41666 23.5654 4.41666 23.8252 4.54656 24.085C4.93627 24.7345 5.71568 24.9943 6.36518 24.6046L12.9902 21.0973L19.6152 24.6046C19.7451 24.7345 20.0049 24.7345 20.2647 24.7345H20.5245C21.174 24.6046 21.6936 23.9551 21.5637 23.1757L20.2647 15.7713L25.5906 10.5752C25.8504 10.4453 25.9803 10.1855 25.9803 9.92573Z" fill="#F9B917"/>
</g>
</svg>
