<svg width="19" height="19" viewBox="0 0 19 19" fill="none" xmlns="http://www.w3.org/2000/svg">
<g id="&#240;&#159;&#166;&#134; icon &#34;phone-volume&#34;">
<path id="Vector" d="M16.547 10.3843C16.3378 10.3843 16.1192 10.3182 15.9101 10.271C15.4869 10.177 15.0709 10.054 14.6649 9.90282C14.2239 9.74349 13.7392 9.75177 13.304 9.92604C12.8688 10.1003 12.5138 10.4283 12.3075 10.8468L12.0984 11.2811C11.1752 10.7611 10.3224 10.1267 9.5604 9.39304C8.82168 8.63629 8.18286 7.78931 7.6593 6.8725L8.09655 6.67425C8.51799 6.46932 8.84823 6.11683 9.02372 5.68462C9.1992 5.25241 9.20753 4.77102 9.04711 4.33307C8.89615 3.92623 8.77231 3.50996 8.67639 3.08696C8.62886 2.87927 8.59084 2.66215 8.56232 2.45446C8.44689 1.78951 8.0962 1.18734 7.57339 0.756389C7.05058 0.32544 6.39002 0.0940331 5.71067 0.103843H2.8495C2.44765 0.10332 2.05023 0.187151 1.68328 0.34984C1.31634 0.512529 0.988162 0.750403 0.720263 1.04787C0.446808 1.3534 0.243195 1.71411 0.123414 2.10521C0.00363288 2.4963 -0.0294769 2.90852 0.0263593 3.31353C0.543068 7.24269 2.35066 10.8928 5.16885 13.6978C7.99327 16.4966 11.6686 18.2918 15.6249 18.805C15.7483 18.8143 15.8723 18.8143 15.9956 18.805C16.6966 18.806 17.3734 18.5506 17.8968 18.0875C18.1963 17.8214 18.4358 17.4955 18.5996 17.1311C18.7634 16.7667 18.8478 16.372 18.8473 15.9729V13.1408C18.8422 12.4885 18.6105 11.858 18.1914 11.3558C17.7722 10.8535 17.1914 10.5104 16.547 10.3843ZM17.0127 16.0484C17.0124 16.1801 16.9844 16.3104 16.9303 16.4307C16.8763 16.551 16.7975 16.6587 16.6991 16.747C16.5949 16.8413 16.4709 16.9113 16.3361 16.9522C16.2013 16.993 16.059 17.0035 15.9196 16.983C12.3724 16.5229 9.07586 14.9175 6.53765 12.4139C3.99727 9.89098 2.36665 6.60569 1.89895 3.06808C1.8783 2.92962 1.88891 2.78834 1.93001 2.65446C1.97111 2.52057 2.04167 2.39744 2.13659 2.29398C2.22653 2.195 2.33656 2.11606 2.45944 2.06237C2.58232 2.00867 2.71526 1.98144 2.8495 1.98245H5.70116C5.92089 1.97712 6.13569 2.04757 6.309 2.18183C6.48232 2.31608 6.60342 2.50584 6.65171 2.71879C6.65171 2.97368 6.73726 3.238 6.79429 3.49289C6.90416 3.98743 7.0503 4.47333 7.23155 4.94669L5.90078 5.56974C5.67204 5.67402 5.49428 5.86414 5.40649 6.0984C5.31142 6.32823 5.31142 6.58602 5.40649 6.81586C6.77452 9.72605 9.13004 12.0654 12.0604 13.424C12.2918 13.5184 12.5514 13.5184 12.7828 13.424C13.0187 13.3368 13.2101 13.1603 13.3151 12.9331L13.9139 11.6115C14.4043 11.7891 14.9061 11.9342 15.4158 12.0458C15.663 12.1024 15.9291 12.1496 16.1858 12.1874C16.4002 12.2353 16.5913 12.3556 16.7264 12.5277C16.8616 12.6998 16.9326 12.9132 16.9272 13.1314L17.0127 16.0484ZM11.4045 0C11.1858 0 10.9577 0 10.7391 0C10.487 0.0212815 10.2537 0.141151 10.0906 0.333238C9.9275 0.525325 9.8479 0.773896 9.86933 1.02427C9.89076 1.27464 10.0115 1.5063 10.2049 1.66829C10.3983 1.83028 10.6486 1.90933 10.9007 1.88805H11.4045C12.9171 1.88805 14.3678 2.48481 15.4373 3.54704C16.5069 4.60927 17.1078 6.04997 17.1078 7.55219C17.1078 7.72212 17.1078 7.8826 17.1078 8.05253C17.0867 8.30157 17.1659 8.54875 17.3281 8.73987C17.4902 8.93099 17.7221 9.05046 17.9728 9.07207H18.0488C18.2868 9.07303 18.5165 8.98532 18.6925 8.82626C18.8685 8.66721 18.978 8.44838 18.9994 8.21301C18.9994 7.99589 18.9994 7.76932 18.9994 7.55219C18.9994 5.55086 18.1995 3.63136 16.7755 2.21532C15.3514 0.799281 13.4196 0.00250167 11.4045 0ZM13.3056 7.55219C13.3056 7.80257 13.4057 8.04268 13.584 8.21972C13.7623 8.39676 14.004 8.49622 14.2561 8.49622C14.5082 8.49622 14.75 8.39676 14.9283 8.21972C15.1065 8.04268 15.2067 7.80257 15.2067 7.55219C15.2067 6.55071 14.8061 5.59025 14.093 4.88209C13.38 4.17393 12.4129 3.7761 11.4045 3.7761C11.1524 3.7761 10.9106 3.87556 10.7323 4.0526C10.5541 4.22963 10.4539 4.46975 10.4539 4.72012C10.4539 4.97049 10.5541 5.21061 10.7323 5.38765C10.9106 5.56469 11.1524 5.66415 11.4045 5.66415C11.9087 5.66415 12.3922 5.86306 12.7488 6.21714C13.1053 6.57122 13.3056 7.05145 13.3056 7.55219Z" fill="#3F7824"/>
</g>
</svg>
