<svg width="56" height="56" viewBox="0 0 56 56" fill="none" xmlns="http://www.w3.org/2000/svg">
<g id="Group 799">
<circle id="Ellipse 77" cx="28.0001" cy="28.0001" r="28.0001" fill="#3F7824"/>
<path id="Vector" d="M32.4886 39.1769C32.7856 39.1786 33.0799 39.1213 33.3547 39.0082C33.6296 38.8951 33.8796 38.7284 34.0904 38.5178C34.3019 38.3065 34.4697 38.0551 34.5842 37.7782C34.6988 37.5012 34.7577 37.2042 34.7577 36.9041C34.7577 36.6041 34.6988 36.3071 34.5842 36.0301C34.4697 35.7532 34.3019 35.5018 34.0904 35.2905L26.623 27.8133L33.7971 20.2906C34.2173 19.8647 34.4532 19.2887 34.4532 18.6883C34.4532 18.0879 34.2173 17.5118 33.7971 17.086C33.5874 16.873 33.3379 16.7039 33.063 16.5885C32.7881 16.4732 32.4932 16.4138 32.1954 16.4138C31.8975 16.4138 31.6027 16.4732 31.3278 16.5885C31.0528 16.7039 30.8033 16.873 30.5936 17.086L21.8854 26.1769C21.472 26.6017 21.2405 27.1729 21.2405 27.7678C21.2405 28.3627 21.472 28.9339 21.8854 29.3587L30.9094 38.4496C31.1119 38.6699 31.3557 38.8476 31.6268 38.9724C31.8979 39.0972 32.1908 39.1667 32.4886 39.1769Z" fill="white"/>
</g>
</svg>
