<svg width="17" height="17" viewBox="0 0 17 17" fill="none" xmlns="http://www.w3.org/2000/svg">
<g id="Dismiss / undefined / Glyph: undefined">
<path id="Vector" d="M3.11588 3.22544L3.16732 3.16585C3.35593 2.97725 3.65106 2.9601 3.85903 3.11441L3.91862 3.16585L8.5013 7.7483L13.084 3.16585C13.2915 2.95839 13.6278 2.95839 13.8353 3.16585C14.0427 3.37332 14.0427 3.70969 13.8353 3.91715L9.25284 8.49984L13.8353 13.0825C14.0239 13.2711 14.041 13.5663 13.8867 13.7742L13.8353 13.8338C13.6467 14.0224 13.3515 14.0396 13.1436 13.8852L13.084 13.8338L8.5013 9.25138L3.91862 13.8338C3.71116 14.0413 3.37478 14.0413 3.16732 13.8338C2.95985 13.6263 2.95985 13.29 3.16732 13.0825L7.74976 8.49984L3.16732 3.91715C2.97871 3.72855 2.96157 3.43341 3.11588 3.22544Z" fill="#212121"/>
</g>
</svg>
