<svg width="4" height="7" viewBox="0 0 4 7" fill="none" xmlns="http://www.w3.org/2000/svg">
<g id="&#240;&#159;&#166;&#134; icon &#34;question&#34;">
<path id="Vector" d="M3.81262 2.04181C3.81261 1.59233 3.66717 1.15542 3.39885 0.798831C3.13054 0.442241 2.75435 0.185903 2.32862 0.0695724C1.90289 -0.0467583 1.45142 -0.0165805 1.04422 0.155425C0.637024 0.327431 0.296858 0.631652 0.07648 1.02091C0.000715204 1.15492 -0.0197628 1.31414 0.0195479 1.46354C0.0588587 1.61295 0.154741 1.74033 0.286114 1.81766C0.417487 1.89499 0.573596 1.91596 0.720122 1.87595C0.866648 1.83593 0.991596 1.73822 1.0675 1.60428C1.14291 1.47138 1.25124 1.36101 1.38163 1.28422C1.51203 1.20744 1.65991 1.16693 1.81048 1.16675C2.03805 1.16675 2.2563 1.25894 2.41722 1.42305C2.57814 1.58716 2.66854 1.80973 2.66854 2.04181C2.66854 2.27389 2.57814 2.49647 2.41722 2.66057C2.2563 2.82468 2.03805 2.91687 1.81048 2.91687H1.80908C1.77233 2.92063 1.73606 2.92819 1.70081 2.93945C1.66227 2.94353 1.62422 2.95147 1.5872 2.96316C1.5557 2.98061 1.52591 3.0011 1.49824 3.02433C1.46538 3.04256 1.43435 3.064 1.40557 3.08836C1.37984 3.11966 1.3574 3.15362 1.3386 3.18969C1.31776 3.21599 1.29925 3.24414 1.2833 3.27379C1.27087 3.314 1.26265 3.35544 1.25879 3.39741C1.24882 3.43096 1.24201 3.46539 1.23844 3.50025V4.08362L1.23977 4.09024L1.24039 4.37673C1.24079 4.5312 1.30123 4.6792 1.40846 4.78829C1.51569 4.89738 1.66097 4.95866 1.81244 4.95868H1.81383C1.96554 4.95829 2.11089 4.89647 2.21791 4.7868C2.32492 4.67713 2.38484 4.5286 2.38448 4.37388L2.3836 3.98805C2.79522 3.86327 3.15647 3.60659 3.41386 3.25605C3.67125 2.9055 3.81107 2.47974 3.81262 2.04181ZM1.40854 6.00292C1.32822 6.08416 1.27333 6.18785 1.25079 6.3009C1.22826 6.41395 1.23909 6.53128 1.28193 6.63805C1.32477 6.74482 1.39769 6.83624 1.49147 6.90075C1.58525 6.96526 1.69568 6.99997 1.8088 7.00049C1.96051 6.99922 2.10597 6.93867 2.21521 6.83131C2.32139 6.72064 2.38084 6.57197 2.38084 6.41714C2.38084 6.26231 2.32139 6.11363 2.21521 6.00296C2.1057 5.89889 1.96158 5.84101 1.81188 5.841C1.66219 5.841 1.51806 5.89885 1.40854 6.00292Z" fill="#3F7824"/>
</g>
</svg>
