<svg width="21" height="19" viewBox="0 0 21 19" fill="none" xmlns="http://www.w3.org/2000/svg">
<g id="&#240;&#159;&#166;&#134; icon &#34;headphones&#34;">
<path id="Vector" d="M10.4999 0C9.121 0 7.75564 0.269722 6.48174 0.793765C5.20783 1.31781 4.05034 2.08591 3.07534 3.05422C1.10623 5.0098 0 7.66214 0 10.4277V17.7272C0 18.0037 0.110623 18.269 0.307534 18.4645C0.504444 18.6601 0.771512 18.7699 1.04999 18.7699H4.19994C5.03536 18.7699 5.83657 18.4404 6.4273 17.8537C7.01803 17.267 7.3499 16.4713 7.3499 15.6416V13.5561C7.3499 12.7264 7.01803 11.9307 6.4273 11.344C5.83657 10.7573 5.03536 10.4277 4.19994 10.4277H2.09997C2.09997 8.21526 2.98496 6.09339 4.56024 4.52892C6.13553 2.96446 8.27207 2.08555 10.4999 2.08555C12.7276 2.08555 14.8642 2.96446 16.4395 4.52892C18.0148 6.09339 18.8997 8.21526 18.8997 10.4277H16.7998C15.9644 10.4277 15.1631 10.7573 14.5724 11.344C13.9817 11.9307 13.6498 12.7264 13.6498 13.5561V15.6416C13.6498 16.4713 13.9817 17.267 14.5724 17.8537C15.1631 18.4404 15.9644 18.7699 16.7998 18.7699H19.9497C20.2282 18.7699 20.4953 18.6601 20.6922 18.4645C20.8891 18.269 20.9997 18.0037 20.9997 17.7272V10.4277C20.9997 7.66214 19.8935 5.0098 17.9244 3.05422C15.9553 1.09863 13.2846 0 10.4999 0ZM4.19994 12.5133C4.47842 12.5133 4.74548 12.6232 4.9424 12.8187C5.13931 13.0143 5.24993 13.2795 5.24993 13.5561V15.6416C5.24993 15.9182 5.13931 16.1834 4.9424 16.379C4.74548 16.5745 4.47842 16.6844 4.19994 16.6844H2.09997V12.5133H4.19994ZM18.8997 16.6844H16.7998C16.5213 16.6844 16.2542 16.5745 16.0573 16.379C15.8604 16.1834 15.7498 15.9182 15.7498 15.6416V13.5561C15.7498 13.2795 15.8604 13.0143 16.0573 12.8187C16.2542 12.6232 16.5213 12.5133 16.7998 12.5133H18.8997V16.6844Z" fill="#3F7824"/>
</g>
</svg>
