<svg width="19" height="19" viewBox="0 0 19 19" fill="none" xmlns="http://www.w3.org/2000/svg">
<path id="Vector" d="M0 0.814286C0 0.364572 0.364596 0 0.814339 0H1.42049C2.4525 0 3.07041 0.69376 3.42375 1.33867C3.65927 1.76856 3.82965 2.26717 3.96292 2.71857C3.99901 2.71574 4.03558 2.71429 4.07256 2.71429H17.642C18.5434 2.71429 19.1943 3.5768 18.9472 4.44361L16.9626 11.4021C16.5969 12.6846 15.4249 13.569 14.0912 13.569H7.63282C6.28809 13.569 5.10927 12.6702 4.75338 11.3735L3.92765 8.36489L2.56109 3.75199L2.55887 3.74391C2.38981 3.12741 2.23115 2.55148 1.99538 2.12116C1.76642 1.70327 1.58391 1.62857 1.42049 1.62857H0.814339C0.364596 1.62857 0 1.264 0 0.814286ZM5.50801 7.96947L6.32398 10.9425C6.48575 11.5319 7.02158 11.9405 7.63282 11.9405H14.0912C14.6974 11.9405 15.2301 11.5384 15.3964 10.9555L17.2822 4.34286H4.43597L5.49305 7.91138C5.49879 7.93071 5.50376 7.95003 5.50801 7.96947ZM9.22918 16.8286C9.22918 18.0279 8.25696 19 7.0576 19C5.85828 19 4.88603 18.0279 4.88603 16.8286C4.88603 15.6293 5.85828 14.6571 7.0576 14.6571C8.25696 14.6571 9.22918 15.6293 9.22918 16.8286ZM7.6005 16.8286C7.6005 16.5288 7.35743 16.2857 7.0576 16.2857C6.75778 16.2857 6.51471 16.5288 6.51471 16.8286C6.51471 17.1283 6.75778 17.3714 7.0576 17.3714C7.35743 17.3714 7.6005 17.1283 7.6005 16.8286ZM16.8297 16.8286C16.8297 18.0279 15.8575 19 14.6581 19C13.4587 19 12.4865 18.0279 12.4865 16.8286C12.4865 15.6293 13.4587 14.6571 14.6581 14.6571C15.8575 14.6571 16.8297 15.6293 16.8297 16.8286ZM15.201 16.8286C15.201 16.5288 14.9579 16.2857 14.6581 16.2857C14.3583 16.2857 14.1152 16.5288 14.1152 16.8286C14.1152 17.1283 14.3583 17.3714 14.6581 17.3714C14.9579 17.3714 15.201 17.1283 15.201 16.8286Z" fill="#20304D"/>
</svg>
