<svg width="19" height="19" viewBox="0 0 19 19" fill="none" xmlns="http://www.w3.org/2000/svg">
<g id="&#240;&#159;&#166;&#134; icon &#34;user&#34;">
<path id="Vector" d="M12.7047 10.174C13.6175 9.44162 14.2837 8.43734 14.6107 7.30085C14.9378 6.16436 14.9093 4.95218 14.5293 3.83295C14.1493 2.71373 13.4367 1.74311 12.4907 1.05614C11.5446 0.369166 10.412 0 9.25064 0C8.08924 0 6.95672 0.369166 6.01063 1.05614C5.06454 1.74311 4.35194 2.71373 3.97196 3.83295C3.59198 4.95218 3.56352 6.16436 3.89054 7.30085C4.21756 8.43734 4.88379 9.44162 5.79656 10.174C4.23252 10.813 2.86784 11.8729 1.848 13.2407C0.82817 14.6084 0.191413 16.2328 0.00561576 17.9406C-0.0078332 18.0653 0.0029312 18.1915 0.0372941 18.3119C0.071657 18.4323 0.128945 18.5447 0.205889 18.6426C0.361283 18.8402 0.587302 18.9668 0.834223 18.9945C1.08115 19.0222 1.32874 18.9487 1.52255 18.7903C1.71636 18.6318 1.84049 18.4013 1.86766 18.1495C2.07209 16.2935 2.9399 14.5793 4.30527 13.3346C5.67064 12.0898 7.43785 11.4017 9.26926 11.4017C11.1007 11.4017 12.8679 12.0898 14.2333 13.3346C15.5986 14.5793 16.4664 16.2935 16.6709 18.1495C16.6962 18.3828 16.8053 18.5983 16.9773 18.7543C17.1492 18.9104 17.3717 18.9959 17.6019 18.9945H17.7043C17.9484 18.9659 18.1714 18.84 18.3249 18.6444C18.4783 18.4488 18.5498 18.1992 18.5236 17.9501C18.3369 16.2375 17.6967 14.6089 16.6717 13.2391C15.6466 11.8692 14.2753 10.8096 12.7047 10.174ZM9.25064 9.49987C8.51409 9.49987 7.79408 9.27712 7.18166 8.85981C6.56923 8.4425 6.09191 7.84935 5.81004 7.15538C5.52817 6.46142 5.45443 5.69779 5.59812 4.96108C5.74181 4.22437 6.0965 3.54765 6.61732 3.01651C7.13814 2.48537 7.80171 2.12366 8.52411 1.97712C9.24651 1.83058 9.9953 1.90579 10.6758 2.19324C11.3563 2.48069 11.9379 2.96747 12.3471 3.59203C12.7563 4.21658 12.9747 4.95086 12.9747 5.70201C12.9747 6.70926 12.5824 7.67526 11.884 8.3875C11.1856 9.09974 10.2383 9.49987 9.25064 9.49987Z" fill="#3F7824"/>
</g>
</svg>
