<svg width="18" height="14" viewBox="0 0 18 14" fill="none" xmlns="http://www.w3.org/2000/svg">
<g id="&#240;&#159;&#166;&#134; icon &#34;youtube&#34;">
<path id="Vector" d="M17.9951 4.8627C18.0356 3.58599 17.7796 2.31884 17.2511 1.17889C16.8925 0.711146 16.3948 0.395491 15.8448 0.28693C13.5697 0.0617314 11.2853 -0.0305699 9.00117 0.0104211C6.72541 -0.0324304 4.44917 0.0568925 2.18211 0.27801C1.7339 0.366954 1.31912 0.5963 0.988368 0.938063C0.252498 1.67839 0.170735 2.94498 0.0889715 4.01534C-0.0296572 5.9398 -0.0296572 7.87079 0.0889715 9.79526C0.112626 10.3977 0.19485 10.9957 0.334261 11.5792C0.432848 12.0297 0.632307 12.4465 0.914781 12.7923C1.24778 13.1521 1.67222 13.3945 2.13305 13.488C3.8958 13.7254 5.67195 13.8237 7.44767 13.7823C10.3094 13.8269 12.8195 13.7823 15.7875 13.5326C16.2597 13.4449 16.6961 13.2022 17.0385 12.8369C17.2674 12.587 17.4384 12.2812 17.5373 11.9449C17.8297 10.9661 17.9733 9.94164 17.9624 8.91221C17.9951 8.41272 17.9951 5.39788 17.9951 4.8627ZM7.15332 9.44739V3.92614L11.9937 6.70015C10.6364 7.52075 8.84582 8.44839 7.15332 9.44739Z" fill="#E70F0F"/>
</g>
</svg>
