<svg width="64" height="64" viewBox="0 0 64 64" fill="none" xmlns="http://www.w3.org/2000/svg">
<g id="Frame 408">
<path id="Vector" d="M32 10C19.8497 10 10 19.8497 10 32C10 44.1502 19.8497 54 32 54C44.1502 54 54 44.1502 54 32C54 19.8497 44.1502 10 32 10ZM15.5 32C15.5 22.8873 22.8873 15.5 32 15.5C41.1128 15.5 48.5 22.8873 48.5 32C48.5 41.1128 41.1128 48.5 32 48.5C22.8873 48.5 15.5 41.1128 15.5 32ZM41.278 25.4721C42.3517 26.5461 42.3517 28.2873 41.278 29.3613L31.1946 39.4446C30.1207 40.5184 28.3794 40.5184 27.3055 39.4446L23.6388 35.778C22.5648 34.704 22.5648 32.9627 23.6388 31.8887C24.7127 30.8149 26.4539 30.8149 27.5279 31.8887L29.25 33.611L37.3887 25.4721C38.4627 24.3982 40.204 24.3982 41.278 25.4721Z" fill="#386A20"/>
</g>
</svg>
