<svg width="16" height="19" viewBox="0 0 16 19" fill="none" xmlns="http://www.w3.org/2000/svg">
<g id="Frame 1018">
<path id="Vector" d="M7.60007 0C5.58441 0 3.6513 0.80072 2.22601 2.22601C0.80072 3.6513 0 5.58441 0 7.60007C0 12.7301 6.69756 18.5252 6.98257 18.7722C7.15464 18.9194 7.37363 19.0002 7.60007 19.0002C7.82651 19.0002 8.0455 18.9194 8.21758 18.7722C8.55008 18.5252 15.2001 12.7301 15.2001 7.60007C15.2001 5.58441 14.3994 3.6513 12.9741 2.22601C11.5488 0.80072 9.61574 0 7.60007 0ZM7.60007 16.7677C5.57655 14.8676 1.90002 10.7731 1.90002 7.60007C1.90002 6.08832 2.50056 4.63849 3.56953 3.56953C4.63849 2.50056 6.08832 1.90002 7.60007 1.90002C9.11182 1.90002 10.5617 2.50056 11.6306 3.56953C12.6996 4.63849 13.3001 6.08832 13.3001 7.60007C13.3001 10.7731 9.62359 14.8771 7.60007 16.7677ZM7.60007 3.80004C6.8485 3.80004 6.1138 4.0229 5.48889 4.44046C4.86397 4.85801 4.37691 5.4515 4.0893 6.14586C3.80168 6.84023 3.72643 7.60429 3.87305 8.34142C4.01968 9.07856 4.3816 9.75566 4.91304 10.2871C5.44449 10.8185 6.12159 11.1805 6.85872 11.3271C7.59586 11.4737 8.35992 11.3985 9.05428 11.1109C9.74865 10.8232 10.3421 10.3362 10.7597 9.71126C11.1772 9.08635 11.4001 8.35165 11.4001 7.60007C11.4001 6.59224 10.9997 5.62569 10.2871 4.91304C9.57446 4.2004 8.6079 3.80004 7.60007 3.80004ZM7.60007 9.50009C7.22428 9.50009 6.85694 9.38866 6.54448 9.17988C6.23202 8.9711 5.98849 8.67436 5.84468 8.32718C5.70088 7.98 5.66325 7.59797 5.73656 7.2294C5.80987 6.86083 5.99083 6.52228 6.25656 6.25656C6.52228 5.99084 6.86083 5.80988 7.2294 5.73656C7.59796 5.66325 7.97999 5.70088 8.32718 5.84469C8.67436 5.98849 8.9711 6.23202 9.17988 6.54448C9.38866 6.85694 9.50009 7.22429 9.50009 7.60007C9.50009 8.10399 9.29991 8.58727 8.94359 8.94359C8.58726 9.29991 8.10399 9.50009 7.60007 9.50009Z" fill="#3F7824"/>
</g>
</svg>
