<svg width="24" height="41" viewBox="0 0 24 41" fill="none" xmlns="http://www.w3.org/2000/svg">
<g id="chevron-right">
<path id="Vector" d="M4.02877 40.1187C3.50161 40.1217 2.97904 40.0207 2.49101 39.8214C2.00299 39.622 1.55911 39.3283 1.18483 38.9571C0.809399 38.5847 0.511411 38.1417 0.308055 37.6536C0.104699 37.1655 0 36.6419 0 36.1132C0 35.5844 0.104699 35.0608 0.308055 34.5727C0.511411 34.0846 0.809399 33.6416 1.18483 33.2692L14.4432 20.091L1.70555 6.83264C0.959517 6.08216 0.540772 5.06695 0.540772 4.00874C0.540772 2.95053 0.959517 1.93532 1.70555 1.18483C2.07792 0.809399 2.52094 0.511409 3.00905 0.308053C3.49716 0.104697 4.02071 0 4.54949 0C5.07827 0 5.60181 0.104697 6.08993 0.308053C6.57804 0.511409 7.02106 0.809399 7.39342 1.18483L22.8548 17.207C23.5887 17.9557 23.9998 18.9624 23.9998 20.0109C23.9998 21.0593 23.5887 22.066 22.8548 22.8148L6.83265 38.8369C6.47312 39.2252 6.04022 39.5384 5.55896 39.7584C5.07771 39.9784 4.55763 40.1008 4.02877 40.1187Z" fill="white"/>
</g>
</svg>
